<svg width="316" height="235" viewBox="0 0 316 235" fill="none" xmlns="http://www.w3.org/2000/svg">
<mask id="mask0_12_14" style="mask-type:alpha" maskUnits="userSpaceOnUse" x="17" y="20" width="283" height="159">
<path d="M74.625 113.466H105.307L116.386 127.386L135.136 148.693L159.568 178.239H124.625L107.295 158.068L95.6477 141.307L74.625 113.466ZM159.284 94.7159C159.284 110.909 156.135 124.569 149.838 135.696C143.541 146.776 135.042 155.18 124.341 160.909C113.64 166.591 101.708 169.432 88.5455 169.432C75.2879 169.432 63.3087 166.567 52.608 160.838C41.9545 155.062 33.4792 146.634 27.1818 135.554C20.9318 124.427 17.8068 110.814 17.8068 94.7159C17.8068 78.5227 20.9318 64.8864 27.1818 53.8068C33.4792 42.6799 41.9545 34.2756 52.608 28.5938C63.3087 22.8646 75.2879 20 88.5455 20C101.708 20 113.64 22.8646 124.341 28.5938C135.042 34.2756 143.541 42.6799 149.838 53.8068C156.135 64.8864 159.284 78.5227 159.284 94.7159ZM118.659 94.7159C118.659 86.0038 117.499 78.6648 115.179 72.6989C112.906 66.6856 109.521 62.1402 105.023 59.0625C100.572 55.9375 95.0796 54.375 88.5455 54.375C82.0114 54.375 76.4953 55.9375 71.9972 59.0625C67.5464 62.1402 64.161 66.6856 61.8409 72.6989C59.5682 78.6648 58.4318 86.0038 58.4318 94.7159C58.4318 103.428 59.5682 110.791 61.8409 116.804C64.161 122.77 67.5464 127.315 71.9972 130.44C76.4953 133.518 82.0114 135.057 88.5455 135.057C95.0796 135.057 100.572 133.518 105.023 130.44C109.521 127.315 112.906 122.77 115.179 116.804C117.499 110.791 118.659 103.428 118.659 94.7159Z" fill="black"/>
<path d="M177.75 167.443V21.9886H240.534C251.33 21.9886 260.776 23.9536 268.872 27.8835C276.969 31.8135 283.266 37.4716 287.764 44.858C292.262 52.2443 294.511 61.0985 294.511 71.4205C294.511 81.8371 292.191 90.6203 287.551 97.7699C282.958 104.92 276.495 110.317 268.162 113.963C259.876 117.609 250.193 119.432 239.114 119.432H201.614V88.75H231.159C235.799 88.75 239.753 88.1818 243.02 87.0455C246.334 85.8617 248.867 83.9915 250.619 81.4347C252.419 78.8778 253.318 75.5398 253.318 71.4205C253.318 67.2538 252.419 63.8684 250.619 61.2642C248.867 58.6127 246.334 56.6714 243.02 55.4403C239.753 54.1619 235.799 53.5227 231.159 53.5227H217.239V167.443H177.75ZM262.977 100.682L299.341 167.443H256.443L220.932 100.682H262.977Z" fill="black"/>
</mask>
<g mask="url(#mask0_12_14)">
<path d="M18 -46.5568H25.5946V-38.9352H18V-46.5568ZM25.5946 -46.5568H33.1892V-38.9352H25.5946V-46.5568ZM33.1892 -46.5568H40.7838V-38.9352H33.1892V-46.5568ZM40.7838 -46.5568H48.3784V-38.9352H40.7838V-46.5568ZM48.3784 -46.5568H55.973V-38.9352H48.3784V-46.5568ZM55.973 -46.5568H63.5676V-38.9352H55.973V-46.5568ZM63.5676 -46.5568H71.1622V-38.9352H63.5676V-46.5568ZM86.3513 -46.5568H93.9459V-38.9352H86.3513V-46.5568ZM139.514 -46.5568H147.108V-38.9352H139.514V-46.5568ZM147.108 -46.5568H154.703V-38.9352H147.108V-46.5568ZM154.703 -46.5568H162.297V-38.9352H154.703V-46.5568ZM162.297 -46.5568H169.892V-38.9352H162.297V-46.5568ZM169.892 -46.5568H177.486V-38.9352H169.892V-46.5568ZM177.486 -46.5568H185.081V-38.9352H177.486V-46.5568ZM192.676 -46.5568H200.27V-38.9352H192.676V-46.5568ZM215.459 -46.5568H223.054V-38.9352H215.459V-46.5568ZM230.649 -46.5568H238.243V-38.9352H230.649V-46.5568ZM245.838 -46.5568H253.432V-38.9352H245.838V-46.5568ZM253.432 -46.5568H261.027V-38.9352H253.432V-46.5568ZM261.027 -46.5568H268.622V-38.9352H261.027V-46.5568ZM268.622 -46.5568H276.216V-38.9352H268.622V-46.5568ZM276.216 -46.5568H283.811V-38.9352H276.216V-46.5568ZM283.811 -46.5568H291.405V-38.9352H283.811V-46.5568ZM291.405 -46.5568H299V-38.9352H291.405V-46.5568ZM18 -38.9352H25.5946V-31.3136H18V-38.9352ZM63.5676 -38.9352H71.1622V-31.3136H63.5676V-38.9352ZM78.7568 -38.9352H86.3513V-31.3136H78.7568V-38.9352ZM86.3513 -38.9352H93.9459V-31.3136H86.3513V-38.9352ZM101.541 -38.9352H109.135V-31.3136H101.541V-38.9352ZM109.135 -38.9352H116.73V-31.3136H109.135V-38.9352ZM116.73 -38.9352H124.324V-31.3136H116.73V-38.9352ZM131.919 -38.9352H139.514V-31.3136H131.919V-38.9352ZM139.514 -38.9352H147.108V-31.3136H139.514V-38.9352ZM147.108 -38.9352H154.703V-31.3136H147.108V-38.9352ZM169.892 -38.9352H177.486V-31.3136H169.892V-38.9352ZM177.486 -38.9352H185.081V-31.3136H177.486V-38.9352ZM185.081 -38.9352H192.676V-31.3136H185.081V-38.9352ZM200.27 -38.9352H207.865V-31.3136H200.27V-38.9352ZM207.865 -38.9352H215.459V-31.3136H207.865V-38.9352ZM223.054 -38.9352H230.649V-31.3136H223.054V-38.9352ZM230.649 -38.9352H238.243V-31.3136H230.649V-38.9352ZM245.838 -38.9352H253.432V-31.3136H245.838V-38.9352ZM291.405 -38.9352H299V-31.3136H291.405V-38.9352ZM18 -31.3136H25.5946V-23.6919H18V-31.3136ZM33.1892 -31.3136H40.7838V-23.6919H33.1892V-31.3136ZM40.7838 -31.3136H48.3784V-23.6919H40.7838V-31.3136ZM48.3784 -31.3136H55.973V-23.6919H48.3784V-31.3136ZM63.5676 -31.3136H71.1622V-23.6919H63.5676V-31.3136ZM86.3513 -31.3136H93.9459V-23.6919H86.3513V-31.3136ZM93.9459 -31.3136H101.541V-23.6919H93.9459V-31.3136ZM101.541 -31.3136H109.135V-23.6919H101.541V-31.3136ZM124.324 -31.3136H131.919V-23.6919H124.324V-31.3136ZM177.486 -31.3136H185.081V-23.6919H177.486V-31.3136ZM185.081 -31.3136H192.676V-23.6919H185.081V-31.3136ZM215.459 -31.3136H223.054V-23.6919H215.459V-31.3136ZM245.838 -31.3136H253.432V-23.6919H245.838V-31.3136ZM261.027 -31.3136H268.622V-23.6919H261.027V-31.3136ZM268.622 -31.3136H276.216V-23.6919H268.622V-31.3136ZM276.216 -31.3136H283.811V-23.6919H276.216V-31.3136ZM291.405 -31.3136H299V-23.6919H291.405V-31.3136ZM18 -23.6919H25.5946V-16.0703H18V-23.6919ZM33.1892 -23.6919H40.7838V-16.0703H33.1892V-23.6919ZM40.7838 -23.6919H48.3784V-16.0703H40.7838V-23.6919ZM48.3784 -23.6919H55.973V-16.0703H48.3784V-23.6919ZM63.5676 -23.6919H71.1622V-16.0703H63.5676V-23.6919ZM78.7568 -23.6919H86.3513V-16.0703H78.7568V-23.6919ZM86.3513 -23.6919H93.9459V-16.0703H86.3513V-23.6919ZM101.541 -23.6919H109.135V-16.0703H101.541V-23.6919ZM116.73 -23.6919H124.324V-16.0703H116.73V-23.6919ZM124.324 -23.6919H131.919V-16.0703H124.324V-23.6919ZM131.919 -23.6919H139.514V-16.0703H131.919V-23.6919ZM139.514 -23.6919H147.108V-16.0703H139.514V-23.6919ZM147.108 -23.6919H154.703V-16.0703H147.108V-23.6919ZM162.297 -23.6919H169.892V-16.0703H162.297V-23.6919ZM169.892 -23.6919H177.486V-16.0703H169.892V-23.6919ZM200.27 -23.6919H207.865V-16.0703H200.27V-23.6919ZM207.865 -23.6919H215.459V-16.0703H207.865V-23.6919ZM245.838 -23.6919H253.432V-16.0703H245.838V-23.6919ZM261.027 -23.6919H268.622V-16.0703H261.027V-23.6919ZM268.622 -23.6919H276.216V-16.0703H268.622V-23.6919ZM276.216 -23.6919H283.811V-16.0703H276.216V-23.6919ZM291.405 -23.6919H299V-16.0703H291.405V-23.6919ZM18 -16.0703H25.5946V-8.4487H18V-16.0703ZM33.1892 -16.0703H40.7838V-8.4487H33.1892V-16.0703ZM40.7838 -16.0703H48.3784V-8.4487H40.7838V-16.0703ZM48.3784 -16.0703H55.973V-8.4487H48.3784V-16.0703ZM63.5676 -16.0703H71.1622V-8.4487H63.5676V-16.0703ZM93.9459 -16.0703H101.541V-8.4487H93.9459V-16.0703ZM109.135 -16.0703H116.73V-8.4487H109.135V-16.0703ZM139.514 -16.0703H147.108V-8.4487H139.514V-16.0703ZM162.297 -16.0703H169.892V-8.4487H162.297V-16.0703ZM169.892 -16.0703H177.486V-8.4487H169.892V-16.0703ZM192.676 -16.0703H200.27V-8.4487H192.676V-16.0703ZM230.649 -16.0703H238.243V-8.4487H230.649V-16.0703ZM245.838 -16.0703H253.432V-8.4487H245.838V-16.0703ZM261.027 -16.0703H268.622V-8.4487H261.027V-16.0703ZM268.622 -16.0703H276.216V-8.4487H268.622V-16.0703ZM276.216 -16.0703H283.811V-8.4487H276.216V-16.0703ZM291.405 -16.0703H299V-8.4487H291.405V-16.0703ZM18 -8.4487H25.5946V-0.82708H18V-8.4487ZM63.5676 -8.4487H71.1622V-0.82708H63.5676V-8.4487ZM78.7568 -8.4487H86.3513V-0.82708H78.7568V-8.4487ZM93.9459 -8.4487H101.541V-0.82708H93.9459V-8.4487ZM131.919 -8.4487H139.514V-0.82708H131.919V-8.4487ZM185.081 -8.4487H192.676V-0.82708H185.081V-8.4487ZM223.054 -8.4487H230.649V-0.82708H223.054V-8.4487ZM230.649 -8.4487H238.243V-0.82708H230.649V-8.4487ZM245.838 -8.4487H253.432V-0.82708H245.838V-8.4487ZM291.405 -8.4487H299V-0.82708H291.405V-8.4487ZM18 -0.82708H25.5946V6.79454H18V-0.82708ZM25.5946 -0.82708H33.1892V6.79454H25.5946V-0.82708ZM33.1892 -0.82708H40.7838V6.79454H33.1892V-0.82708ZM40.7838 -0.82708H48.3784V6.79454H40.7838V-0.82708ZM48.3784 -0.82708H55.973V6.79454H48.3784V-0.82708ZM55.973 -0.82708H63.5676V6.79454H55.973V-0.82708ZM63.5676 -0.82708H71.1622V6.79454H63.5676V-0.82708ZM78.7568 -0.82708H86.3513V6.79454H78.7568V-0.82708ZM93.9459 -0.82708H101.541V6.79454H93.9459V-0.82708ZM109.135 -0.82708H116.73V6.79454H109.135V-0.82708ZM124.324 -0.82708H131.919V6.79454H124.324V-0.82708ZM139.514 -0.82708H147.108V6.79454H139.514V-0.82708ZM154.703 -0.82708H162.297V6.79454H154.703V-0.82708ZM169.892 -0.82708H177.486V6.79454H169.892V-0.82708ZM185.081 -0.82708H192.676V6.79454H185.081V-0.82708ZM200.27 -0.82708H207.865V6.79454H200.27V-0.82708ZM215.459 -0.82708H223.054V6.79454H215.459V-0.82708ZM230.649 -0.82708H238.243V6.79454H230.649V-0.82708ZM245.838 -0.82708H253.432V6.79454H245.838V-0.82708ZM253.432 -0.82708H261.027V6.79454H253.432V-0.82708ZM261.027 -0.82708H268.622V6.79454H261.027V-0.82708ZM268.622 -0.82708H276.216V6.79454H268.622V-0.82708ZM276.216 -0.82708H283.811V6.79454H276.216V-0.82708ZM283.811 -0.82708H291.405V6.79454H283.811V-0.82708ZM291.405 -0.82708H299V6.79454H291.405V-0.82708ZM109.135 6.79454H116.73V14.4162H109.135V6.79454ZM124.324 6.79454H131.919V14.4162H124.324V6.79454ZM131.919 6.79454H139.514V14.4162H131.919V6.79454ZM177.486 6.79454H185.081V14.4162H177.486V6.79454ZM192.676 6.79454H200.27V14.4162H192.676V6.79454ZM230.649 6.79454H238.243V14.4162H230.649V6.79454ZM18 14.4162H25.5946V22.0378H18V14.4162ZM25.5946 14.4162H33.1892V22.0378H25.5946V14.4162ZM33.1892 14.4162H40.7838V22.0378H33.1892V14.4162ZM40.7838 14.4162H48.3784V22.0378H40.7838V14.4162ZM48.3784 14.4162H55.973V22.0378H48.3784V14.4162ZM63.5676 14.4162H71.1622V22.0378H63.5676V14.4162ZM71.1622 14.4162H78.7568V22.0378H71.1622V14.4162ZM78.7568 14.4162H86.3513V22.0378H78.7568V14.4162ZM86.3513 14.4162H93.9459V22.0378H86.3513V14.4162ZM93.9459 14.4162H101.541V22.0378H93.9459V14.4162ZM109.135 14.4162H116.73V22.0378H109.135V14.4162ZM116.73 14.4162H124.324V22.0378H116.73V14.4162ZM124.324 14.4162H131.919V22.0378H124.324V14.4162ZM131.919 14.4162H139.514V22.0378H131.919V14.4162ZM147.108 14.4162H154.703V22.0378H147.108V14.4162ZM154.703 14.4162H162.297V22.0378H154.703V14.4162ZM192.676 14.4162H200.27V22.0378H192.676V14.4162ZM200.27 14.4162H207.865V22.0378H200.27V14.4162ZM207.865 14.4162H215.459V22.0378H207.865V14.4162ZM215.459 14.4162H223.054V22.0378H215.459V14.4162ZM238.243 14.4162H245.838V22.0378H238.243V14.4162ZM253.432 14.4162H261.027V22.0378H253.432V14.4162ZM268.622 14.4162H276.216V22.0378H268.622V14.4162ZM283.811 14.4162H291.405V22.0378H283.811V14.4162ZM25.5946 22.0378H33.1892V29.6594H25.5946V22.0378ZM40.7838 22.0378H48.3784V29.6594H40.7838V22.0378ZM48.3784 22.0378H55.973V29.6594H48.3784V22.0378ZM71.1622 22.0378H78.7568V29.6594H71.1622V22.0378ZM86.3513 22.0378H93.9459V29.6594H86.3513V22.0378ZM116.73 22.0378H124.324V29.6594H116.73V22.0378ZM154.703 22.0378H162.297V29.6594H154.703V22.0378ZM162.297 22.0378H169.892V29.6594H162.297V22.0378ZM177.486 22.0378H185.081V29.6594H177.486V22.0378ZM192.676 22.0378H200.27V29.6594H192.676V22.0378ZM207.865 22.0378H215.459V29.6594H207.865V22.0378ZM230.649 22.0378H238.243V29.6594H230.649V22.0378ZM238.243 22.0378H245.838V29.6594H238.243V22.0378ZM253.432 22.0378H261.027V29.6594H253.432V22.0378ZM268.622 22.0378H276.216V29.6594H268.622V22.0378ZM276.216 22.0378H283.811V29.6594H276.216V22.0378ZM18 29.6594H25.5946V37.281H18V29.6594ZM55.973 29.6594H63.5676V37.281H55.973V29.6594ZM63.5676 29.6594H71.1622V37.281H63.5676V29.6594ZM101.541 29.6594H109.135V37.281H101.541V29.6594ZM109.135 29.6594H116.73V37.281H109.135V29.6594ZM116.73 29.6594H124.324V37.281H116.73V29.6594ZM124.324 29.6594H131.919V37.281H124.324V29.6594ZM131.919 29.6594H139.514V37.281H131.919V29.6594ZM139.514 29.6594H147.108V37.281H139.514V29.6594ZM154.703 29.6594H162.297V37.281H154.703V29.6594ZM177.486 29.6594H185.081V37.281H177.486V29.6594ZM207.865 29.6594H215.459V37.281H207.865V29.6594ZM215.459 29.6594H223.054V37.281H215.459V29.6594ZM223.054 29.6594H230.649V37.281H223.054V29.6594ZM230.649 29.6594H238.243V37.281H230.649V29.6594ZM238.243 29.6594H245.838V37.281H238.243V29.6594ZM245.838 29.6594H253.432V37.281H245.838V29.6594ZM283.811 29.6594H291.405V37.281H283.811V29.6594ZM291.405 29.6594H299V37.281H291.405V29.6594ZM48.3784 37.281H55.973V44.9026H48.3784V37.281ZM71.1622 37.281H78.7568V44.9026H71.1622V37.281ZM78.7568 37.281H86.3513V44.9026H78.7568V37.281ZM101.541 37.281H109.135V44.9026H101.541V37.281ZM139.514 37.281H147.108V44.9026H139.514V37.281ZM154.703 37.281H162.297V44.9026H154.703V37.281ZM169.892 37.281H177.486V44.9026H169.892V37.281ZM177.486 37.281H185.081V44.9026H177.486V37.281ZM192.676 37.281H200.27V44.9026H192.676V37.281ZM200.27 37.281H207.865V44.9026H200.27V37.281ZM230.649 37.281H238.243V44.9026H230.649V37.281ZM245.838 37.281H253.432V44.9026H245.838V37.281ZM291.405 37.281H299V44.9026H291.405V37.281ZM25.5946 44.9026H33.1892V52.5243H25.5946V44.9026ZM48.3784 44.9026H55.973V52.5243H48.3784V44.9026ZM63.5676 44.9026H71.1622V52.5243H63.5676V44.9026ZM78.7568 44.9026H86.3513V52.5243H78.7568V44.9026ZM86.3513 44.9026H93.9459V52.5243H86.3513V44.9026ZM101.541 44.9026H109.135V52.5243H101.541V44.9026ZM116.73 44.9026H124.324V52.5243H116.73V44.9026ZM147.108 44.9026H154.703V52.5243H147.108V44.9026ZM162.297 44.9026H169.892V52.5243H162.297V44.9026ZM177.486 44.9026H185.081V52.5243H177.486V44.9026ZM185.081 44.9026H192.676V52.5243H185.081V44.9026ZM200.27 44.9026H207.865V52.5243H200.27V44.9026ZM207.865 44.9026H215.459V52.5243H207.865V44.9026ZM215.459 44.9026H223.054V52.5243H215.459V44.9026ZM238.243 44.9026H245.838V52.5243H238.243V44.9026ZM245.838 44.9026H253.432V52.5243H245.838V44.9026ZM261.027 44.9026H268.622V52.5243H261.027V44.9026ZM276.216 44.9026H283.811V52.5243H276.216V44.9026ZM291.405 44.9026H299V52.5243H291.405V44.9026ZM25.5946 52.5243H33.1892V60.1459H25.5946V52.5243ZM33.1892 52.5243H40.7838V60.1459H33.1892V52.5243ZM48.3784 52.5243H55.973V60.1459H48.3784V52.5243ZM86.3513 52.5243H93.9459V60.1459H86.3513V52.5243ZM109.135 52.5243H116.73V60.1459H109.135V52.5243ZM139.514 52.5243H147.108V60.1459H139.514V52.5243ZM154.703 52.5243H162.297V60.1459H154.703V52.5243ZM162.297 52.5243H169.892V60.1459H162.297V52.5243ZM207.865 52.5243H215.459V60.1459H207.865V52.5243ZM230.649 52.5243H238.243V60.1459H230.649V52.5243ZM268.622 52.5243H276.216V60.1459H268.622V52.5243ZM25.5946 60.1459H33.1892V67.7675H25.5946V60.1459ZM48.3784 60.1459H55.973V67.7675H48.3784V60.1459ZM63.5676 60.1459H71.1622V67.7675H63.5676V60.1459ZM71.1622 60.1459H78.7568V67.7675H71.1622V60.1459ZM131.919 60.1459H139.514V67.7675H131.919V60.1459ZM169.892 60.1459H177.486V67.7675H169.892V60.1459ZM177.486 60.1459H185.081V67.7675H177.486V60.1459ZM200.27 60.1459H207.865V67.7675H200.27V60.1459ZM223.054 60.1459H230.649V67.7675H223.054V60.1459ZM238.243 60.1459H245.838V67.7675H238.243V60.1459ZM245.838 60.1459H253.432V67.7675H245.838V60.1459ZM253.432 60.1459H261.027V67.7675H253.432V60.1459ZM276.216 60.1459H283.811V67.7675H276.216V60.1459ZM291.405 60.1459H299V67.7675H291.405V60.1459ZM40.7838 67.7675H48.3784V75.3891H40.7838V67.7675ZM48.3784 67.7675H55.973V75.3891H48.3784V67.7675ZM71.1622 67.7675H78.7568V75.3891H71.1622V67.7675ZM93.9459 67.7675H101.541V75.3891H93.9459V67.7675ZM109.135 67.7675H116.73V75.3891H109.135V67.7675ZM131.919 67.7675H139.514V75.3891H131.919V67.7675ZM139.514 67.7675H147.108V75.3891H139.514V67.7675ZM154.703 67.7675H162.297V75.3891H154.703V67.7675ZM162.297 67.7675H169.892V75.3891H162.297V67.7675ZM177.486 67.7675H185.081V75.3891H177.486V67.7675ZM185.081 67.7675H192.676V75.3891H185.081V67.7675ZM200.27 67.7675H207.865V75.3891H200.27V67.7675ZM215.459 67.7675H223.054V75.3891H215.459V67.7675ZM223.054 67.7675H230.649V75.3891H223.054V67.7675ZM230.649 67.7675H238.243V75.3891H230.649V67.7675ZM238.243 67.7675H245.838V75.3891H238.243V67.7675ZM245.838 67.7675H253.432V75.3891H245.838V67.7675ZM253.432 67.7675H261.027V75.3891H253.432V67.7675ZM268.622 67.7675H276.216V75.3891H268.622V67.7675ZM283.811 67.7675H291.405V75.3891H283.811V67.7675ZM18 75.3891H25.5946V83.0108H18V75.3891ZM48.3784 75.3891H55.973V83.0108H48.3784V75.3891ZM55.973 75.3891H63.5676V83.0108H55.973V75.3891ZM63.5676 75.3891H71.1622V83.0108H63.5676V75.3891ZM71.1622 75.3891H78.7568V83.0108H71.1622V75.3891ZM86.3513 75.3891H93.9459V83.0108H86.3513V75.3891ZM93.9459 75.3891H101.541V83.0108H93.9459V75.3891ZM109.135 75.3891H116.73V83.0108H109.135V75.3891ZM116.73 75.3891H124.324V83.0108H116.73V75.3891ZM124.324 75.3891H131.919V83.0108H124.324V75.3891ZM131.919 75.3891H139.514V83.0108H131.919V75.3891ZM139.514 75.3891H147.108V83.0108H139.514V75.3891ZM147.108 75.3891H154.703V83.0108H147.108V75.3891ZM169.892 75.3891H177.486V83.0108H169.892V75.3891ZM200.27 75.3891H207.865V83.0108H200.27V75.3891ZM207.865 75.3891H215.459V83.0108H207.865V75.3891ZM215.459 75.3891H223.054V83.0108H215.459V75.3891ZM238.243 75.3891H245.838V83.0108H238.243V75.3891ZM245.838 75.3891H253.432V83.0108H245.838V75.3891ZM261.027 75.3891H268.622V83.0108H261.027V75.3891ZM268.622 75.3891H276.216V83.0108H268.622V75.3891ZM276.216 75.3891H283.811V83.0108H276.216V75.3891ZM291.405 75.3891H299V83.0108H291.405V75.3891ZM25.5946 83.0108H33.1892V90.6324H25.5946V83.0108ZM48.3784 83.0108H55.973V90.6324H48.3784V83.0108ZM55.973 83.0108H63.5676V90.6324H55.973V83.0108ZM71.1622 83.0108H78.7568V90.6324H71.1622V83.0108ZM78.7568 83.0108H86.3513V90.6324H78.7568V83.0108ZM124.324 83.0108H131.919V90.6324H124.324V83.0108ZM139.514 83.0108H147.108V90.6324H139.514V83.0108ZM147.108 83.0108H154.703V90.6324H147.108V83.0108ZM154.703 83.0108H162.297V90.6324H154.703V83.0108ZM162.297 83.0108H169.892V90.6324H162.297V83.0108ZM169.892 83.0108H177.486V90.6324H169.892V83.0108ZM177.486 83.0108H185.081V90.6324H177.486V83.0108ZM192.676 83.0108H200.27V90.6324H192.676V83.0108ZM200.27 83.0108H207.865V90.6324H200.27V83.0108ZM230.649 83.0108H238.243V90.6324H230.649V83.0108ZM238.243 83.0108H245.838V90.6324H238.243V83.0108ZM253.432 83.0108H261.027V90.6324H253.432V83.0108ZM268.622 83.0108H276.216V90.6324H268.622V83.0108ZM283.811 83.0108H291.405V90.6324H283.811V83.0108ZM40.7838 90.6324H48.3784V98.254H40.7838V90.6324ZM48.3784 90.6324H55.973V98.254H48.3784V90.6324ZM55.973 90.6324H63.5676V98.254H55.973V90.6324ZM63.5676 90.6324H71.1622V98.254H63.5676V90.6324ZM71.1622 90.6324H78.7568V98.254H71.1622V90.6324ZM86.3513 90.6324H93.9459V98.254H86.3513V90.6324ZM101.541 90.6324H109.135V98.254H101.541V90.6324ZM109.135 90.6324H116.73V98.254H109.135V90.6324ZM124.324 90.6324H131.919V98.254H124.324V90.6324ZM131.919 90.6324H139.514V98.254H131.919V90.6324ZM147.108 90.6324H154.703V98.254H147.108V90.6324ZM169.892 90.6324H177.486V98.254H169.892V90.6324ZM177.486 90.6324H185.081V98.254H177.486V90.6324ZM200.27 90.6324H207.865V98.254H200.27V90.6324ZM207.865 90.6324H215.459V98.254H207.865V90.6324ZM223.054 90.6324H230.649V98.254H223.054V90.6324ZM253.432 90.6324H261.027V98.254H253.432V90.6324ZM268.622 90.6324H276.216V98.254H268.622V90.6324ZM283.811 90.6324H291.405V98.254H283.811V90.6324ZM291.405 90.6324H299V98.254H291.405V90.6324ZM48.3784 98.254H55.973V105.876H48.3784V98.254ZM78.7568 98.254H86.3513V105.876H78.7568V98.254ZM86.3513 98.254H93.9459V105.876H86.3513V98.254ZM101.541 98.254H109.135V105.876H101.541V98.254ZM131.919 98.254H139.514V105.876H131.919V98.254ZM169.892 98.254H177.486V105.876H169.892V98.254ZM177.486 98.254H185.081V105.876H177.486V98.254ZM192.676 98.254H200.27V105.876H192.676V98.254ZM200.27 98.254H207.865V105.876H200.27V98.254ZM215.459 98.254H223.054V105.876H215.459V98.254ZM223.054 98.254H230.649V105.876H223.054V98.254ZM245.838 98.254H253.432V105.876H245.838V98.254ZM253.432 98.254H261.027V105.876H253.432V98.254ZM261.027 98.254H268.622V105.876H261.027V98.254ZM283.811 98.254H291.405V105.876H283.811V98.254ZM291.405 98.254H299V105.876H291.405V98.254ZM18 105.876H25.5946V113.497H18V105.876ZM25.5946 105.876H33.1892V113.497H25.5946V105.876ZM33.1892 105.876H40.7838V113.497H33.1892V105.876ZM48.3784 105.876H55.973V113.497H48.3784V105.876ZM55.973 105.876H63.5676V113.497H55.973V105.876ZM63.5676 105.876H71.1622V113.497H63.5676V105.876ZM78.7568 105.876H86.3513V113.497H78.7568V105.876ZM101.541 105.876H109.135V113.497H101.541V105.876ZM116.73 105.876H124.324V113.497H116.73V105.876ZM124.324 105.876H131.919V113.497H124.324V105.876ZM131.919 105.876H139.514V113.497H131.919V105.876ZM147.108 105.876H154.703V113.497H147.108V105.876ZM169.892 105.876H177.486V113.497H169.892V105.876ZM185.081 105.876H192.676V113.497H185.081V105.876ZM207.865 105.876H215.459V113.497H207.865V105.876ZM215.459 105.876H223.054V113.497H215.459V105.876ZM223.054 105.876H230.649V113.497H223.054V105.876ZM238.243 105.876H245.838V113.497H238.243V105.876ZM245.838 105.876H253.432V113.497H245.838V105.876ZM261.027 105.876H268.622V113.497H261.027V105.876ZM268.622 105.876H276.216V113.497H268.622V105.876ZM276.216 105.876H283.811V113.497H276.216V105.876ZM18 113.497H25.5946V121.119H18V113.497ZM25.5946 113.497H33.1892V121.119H25.5946V113.497ZM40.7838 113.497H48.3784V121.119H40.7838V113.497ZM48.3784 113.497H55.973V121.119H48.3784V113.497ZM55.973 113.497H63.5676V121.119H55.973V113.497ZM71.1622 113.497H78.7568V121.119H71.1622V113.497ZM86.3513 113.497H93.9459V121.119H86.3513V113.497ZM109.135 113.497H116.73V121.119H109.135V113.497ZM116.73 113.497H124.324V121.119H116.73V113.497ZM147.108 113.497H154.703V121.119H147.108V113.497ZM154.703 113.497H162.297V121.119H154.703V113.497ZM162.297 113.497H169.892V121.119H162.297V113.497ZM169.892 113.497H177.486V121.119H169.892V113.497ZM177.486 113.497H185.081V121.119H177.486V113.497ZM238.243 113.497H245.838V121.119H238.243V113.497ZM253.432 113.497H261.027V121.119H253.432V113.497ZM268.622 113.497H276.216V121.119H268.622V113.497ZM276.216 113.497H283.811V121.119H276.216V113.497ZM18 121.119H25.5946V128.74H18V121.119ZM33.1892 121.119H40.7838V128.74H33.1892V121.119ZM63.5676 121.119H71.1622V128.74H63.5676V121.119ZM78.7568 121.119H86.3513V128.74H78.7568V121.119ZM93.9459 121.119H101.541V128.74H93.9459V121.119ZM131.919 121.119H139.514V128.74H131.919V121.119ZM139.514 121.119H147.108V128.74H139.514V121.119ZM147.108 121.119H154.703V128.74H147.108V121.119ZM169.892 121.119H177.486V128.74H169.892V121.119ZM177.486 121.119H185.081V128.74H177.486V121.119ZM215.459 121.119H223.054V128.74H215.459V121.119ZM223.054 121.119H230.649V128.74H223.054V121.119ZM238.243 121.119H245.838V128.74H238.243V121.119ZM245.838 121.119H253.432V128.74H245.838V121.119ZM253.432 121.119H261.027V128.74H253.432V121.119ZM261.027 121.119H268.622V128.74H261.027V121.119ZM268.622 121.119H276.216V128.74H268.622V121.119ZM276.216 121.119H283.811V128.74H276.216V121.119ZM283.811 121.119H291.405V128.74H283.811V121.119ZM291.405 121.119H299V128.74H291.405V121.119ZM33.1892 128.74H40.7838V136.362H33.1892V128.74ZM71.1622 128.74H78.7568V136.362H71.1622V128.74ZM78.7568 128.74H86.3513V136.362H78.7568V128.74ZM86.3513 128.74H93.9459V136.362H86.3513V128.74ZM93.9459 128.74H101.541V136.362H93.9459V128.74ZM109.135 128.74H116.73V136.362H109.135V128.74ZM131.919 128.74H139.514V136.362H131.919V128.74ZM139.514 128.74H147.108V136.362H139.514V128.74ZM154.703 128.74H162.297V136.362H154.703V128.74ZM162.297 128.74H169.892V136.362H162.297V128.74ZM169.892 128.74H177.486V136.362H169.892V128.74ZM177.486 128.74H185.081V136.362H177.486V128.74ZM185.081 128.74H192.676V136.362H185.081V128.74ZM200.27 128.74H207.865V136.362H200.27V128.74ZM215.459 128.74H223.054V136.362H215.459V128.74ZM223.054 128.74H230.649V136.362H223.054V128.74ZM230.649 128.74H238.243V136.362H230.649V128.74ZM245.838 128.74H253.432V136.362H245.838V128.74ZM253.432 128.74H261.027V136.362H253.432V128.74ZM261.027 128.74H268.622V136.362H261.027V128.74ZM291.405 128.74H299V136.362H291.405V128.74ZM33.1892 136.362H40.7838V143.984H33.1892V136.362ZM40.7838 136.362H48.3784V143.984H40.7838V136.362ZM48.3784 136.362H55.973V143.984H48.3784V136.362ZM55.973 136.362H63.5676V143.984H55.973V136.362ZM63.5676 136.362H71.1622V143.984H63.5676V136.362ZM78.7568 136.362H86.3513V143.984H78.7568V136.362ZM93.9459 136.362H101.541V143.984H93.9459V136.362ZM109.135 136.362H116.73V143.984H109.135V136.362ZM116.73 136.362H124.324V143.984H116.73V136.362ZM124.324 136.362H131.919V143.984H124.324V136.362ZM131.919 136.362H139.514V143.984H131.919V136.362ZM147.108 136.362H154.703V143.984H147.108V136.362ZM154.703 136.362H162.297V143.984H154.703V136.362ZM162.297 136.362H169.892V143.984H162.297V136.362ZM185.081 136.362H192.676V143.984H185.081V136.362ZM207.865 136.362H215.459V143.984H207.865V136.362ZM223.054 136.362H230.649V143.984H223.054V136.362ZM230.649 136.362H238.243V143.984H230.649V136.362ZM245.838 136.362H253.432V143.984H245.838V136.362ZM261.027 136.362H268.622V143.984H261.027V136.362ZM276.216 136.362H283.811V143.984H276.216V136.362ZM18 143.984H25.5946V151.605H18V143.984ZM25.5946 143.984H33.1892V151.605H25.5946V143.984ZM33.1892 143.984H40.7838V151.605H33.1892V143.984ZM40.7838 143.984H48.3784V151.605H40.7838V143.984ZM71.1622 143.984H78.7568V151.605H71.1622V143.984ZM78.7568 143.984H86.3513V151.605H78.7568V143.984ZM116.73 143.984H124.324V151.605H116.73V143.984ZM139.514 143.984H147.108V151.605H139.514V143.984ZM154.703 143.984H162.297V151.605H154.703V143.984ZM162.297 143.984H169.892V151.605H162.297V143.984ZM169.892 143.984H177.486V151.605H169.892V143.984ZM230.649 143.984H238.243V151.605H230.649V143.984ZM253.432 143.984H261.027V151.605H253.432V143.984ZM18 151.605H25.5946V159.227H18V151.605ZM33.1892 151.605H40.7838V159.227H33.1892V151.605ZM48.3784 151.605H55.973V159.227H48.3784V151.605ZM55.973 151.605H63.5676V159.227H55.973V151.605ZM63.5676 151.605H71.1622V159.227H63.5676V151.605ZM71.1622 151.605H78.7568V159.227H71.1622V151.605ZM78.7568 151.605H86.3513V159.227H78.7568V151.605ZM93.9459 151.605H101.541V159.227H93.9459V151.605ZM101.541 151.605H109.135V159.227H101.541V151.605ZM109.135 151.605H116.73V159.227H109.135V151.605ZM131.919 151.605H139.514V159.227H131.919V151.605ZM147.108 151.605H154.703V159.227H147.108V151.605ZM169.892 151.605H177.486V159.227H169.892V151.605ZM177.486 151.605H185.081V159.227H177.486V151.605ZM185.081 151.605H192.676V159.227H185.081V151.605ZM200.27 151.605H207.865V159.227H200.27V151.605ZM223.054 151.605H230.649V159.227H223.054V151.605ZM230.649 151.605H238.243V159.227H230.649V151.605ZM245.838 151.605H253.432V159.227H245.838V151.605ZM253.432 151.605H261.027V159.227H253.432V151.605ZM261.027 151.605H268.622V159.227H261.027V151.605ZM283.811 151.605H291.405V159.227H283.811V151.605ZM291.405 151.605H299V159.227H291.405V151.605ZM18 159.227H25.5946V166.849H18V159.227ZM33.1892 159.227H40.7838V166.849H33.1892V159.227ZM40.7838 159.227H48.3784V166.849H40.7838V159.227ZM55.973 159.227H63.5676V166.849H55.973V159.227ZM71.1622 159.227H78.7568V166.849H71.1622V159.227ZM78.7568 159.227H86.3513V166.849H78.7568V159.227ZM86.3513 159.227H93.9459V166.849H86.3513V159.227ZM93.9459 159.227H101.541V166.849H93.9459V159.227ZM101.541 159.227H109.135V166.849H101.541V159.227ZM124.324 159.227H131.919V166.849H124.324V159.227ZM139.514 159.227H147.108V166.849H139.514V159.227ZM177.486 159.227H185.081V166.849H177.486V159.227ZM185.081 159.227H192.676V166.849H185.081V159.227ZM200.27 159.227H207.865V166.849H200.27V159.227ZM223.054 159.227H230.649V166.849H223.054V159.227ZM245.838 159.227H253.432V166.849H245.838V159.227ZM291.405 159.227H299V166.849H291.405V159.227ZM18 166.849H25.5946V174.47H18V166.849ZM33.1892 166.849H40.7838V174.47H33.1892V166.849ZM63.5676 166.849H71.1622V174.47H63.5676V166.849ZM78.7568 166.849H86.3513V174.47H78.7568V166.849ZM86.3513 166.849H93.9459V174.47H86.3513V166.849ZM101.541 166.849H109.135V174.47H101.541V166.849ZM116.73 166.849H124.324V174.47H116.73V166.849ZM124.324 166.849H131.919V174.47H124.324V166.849ZM131.919 166.849H139.514V174.47H131.919V166.849ZM139.514 166.849H147.108V174.47H139.514V166.849ZM147.108 166.849H154.703V174.47H147.108V166.849ZM162.297 166.849H169.892V174.47H162.297V166.849ZM200.27 166.849H207.865V174.47H200.27V166.849ZM207.865 166.849H215.459V174.47H207.865V166.849ZM215.459 166.849H223.054V174.47H215.459V166.849ZM223.054 166.849H230.649V174.47H223.054V166.849ZM230.649 166.849H238.243V174.47H230.649V166.849ZM238.243 166.849H245.838V174.47H238.243V166.849ZM245.838 166.849H253.432V174.47H245.838V166.849ZM253.432 166.849H261.027V174.47H253.432V166.849ZM261.027 166.849H268.622V174.47H261.027V166.849ZM276.216 166.849H283.811V174.47H276.216V166.849ZM283.811 166.849H291.405V174.47H283.811V166.849ZM291.405 166.849H299V174.47H291.405V166.849ZM78.7568 174.47H86.3513V182.092H78.7568V174.47ZM93.9459 174.47H101.541V182.092H93.9459V174.47ZM109.135 174.47H116.73V182.092H109.135V174.47ZM124.324 174.47H131.919V182.092H124.324V174.47ZM139.514 174.47H147.108V182.092H139.514V174.47ZM162.297 174.47H169.892V182.092H162.297V174.47ZM169.892 174.47H177.486V182.092H169.892V174.47ZM177.486 174.47H185.081V182.092H177.486V174.47ZM192.676 174.47H200.27V182.092H192.676V174.47ZM200.27 174.47H207.865V182.092H200.27V174.47ZM207.865 174.47H215.459V182.092H207.865V174.47ZM223.054 174.47H230.649V182.092H223.054V174.47ZM230.649 174.47H238.243V182.092H230.649V174.47ZM261.027 174.47H268.622V182.092H261.027V174.47ZM268.622 174.47H276.216V182.092H268.622V174.47ZM283.811 174.47H291.405V182.092H283.811V174.47ZM291.405 174.47H299V182.092H291.405V174.47ZM18 182.092H25.5946V189.713H18V182.092ZM25.5946 182.092H33.1892V189.713H25.5946V182.092ZM33.1892 182.092H40.7838V189.713H33.1892V182.092ZM40.7838 182.092H48.3784V189.713H40.7838V182.092ZM48.3784 182.092H55.973V189.713H48.3784V182.092ZM55.973 182.092H63.5676V189.713H55.973V182.092ZM63.5676 182.092H71.1622V189.713H63.5676V182.092ZM78.7568 182.092H86.3513V189.713H78.7568V182.092ZM86.3513 182.092H93.9459V189.713H86.3513V182.092ZM93.9459 182.092H101.541V189.713H93.9459V182.092ZM116.73 182.092H124.324V189.713H116.73V182.092ZM131.919 182.092H139.514V189.713H131.919V182.092ZM139.514 182.092H147.108V189.713H139.514V182.092ZM177.486 182.092H185.081V189.713H177.486V182.092ZM207.865 182.092H215.459V189.713H207.865V182.092ZM215.459 182.092H223.054V189.713H215.459V182.092ZM230.649 182.092H238.243V189.713H230.649V182.092ZM245.838 182.092H253.432V189.713H245.838V182.092ZM261.027 182.092H268.622V189.713H261.027V182.092ZM276.216 182.092H283.811V189.713H276.216V182.092ZM283.811 182.092H291.405V189.713H283.811V182.092ZM291.405 182.092H299V189.713H291.405V182.092ZM18 189.713H25.5946V197.335H18V189.713ZM63.5676 189.713H71.1622V197.335H63.5676V189.713ZM109.135 189.713H116.73V197.335H109.135V189.713ZM124.324 189.713H131.919V197.335H124.324V189.713ZM131.919 189.713H139.514V197.335H131.919V189.713ZM154.703 189.713H162.297V197.335H154.703V189.713ZM162.297 189.713H169.892V197.335H162.297V189.713ZM177.486 189.713H185.081V197.335H177.486V189.713ZM200.27 189.713H207.865V197.335H200.27V189.713ZM215.459 189.713H223.054V197.335H215.459V189.713ZM230.649 189.713H238.243V197.335H230.649V189.713ZM261.027 189.713H268.622V197.335H261.027V189.713ZM283.811 189.713H291.405V197.335H283.811V189.713ZM18 197.335H25.5946V204.957H18V197.335ZM33.1892 197.335H40.7838V204.957H33.1892V197.335ZM40.7838 197.335H48.3784V204.957H40.7838V197.335ZM48.3784 197.335H55.973V204.957H48.3784V197.335ZM63.5676 197.335H71.1622V204.957H63.5676V197.335ZM78.7568 197.335H86.3513V204.957H78.7568V197.335ZM93.9459 197.335H101.541V204.957H93.9459V197.335ZM109.135 197.335H116.73V204.957H109.135V197.335ZM116.73 197.335H124.324V204.957H116.73V197.335ZM131.919 197.335H139.514V204.957H131.919V197.335ZM147.108 197.335H154.703V204.957H147.108V197.335ZM154.703 197.335H162.297V204.957H154.703V197.335ZM169.892 197.335H177.486V204.957H169.892V197.335ZM185.081 197.335H192.676V204.957H185.081V197.335ZM200.27 197.335H207.865V204.957H200.27V197.335ZM207.865 197.335H215.459V204.957H207.865V197.335ZM215.459 197.335H223.054V204.957H215.459V197.335ZM223.054 197.335H230.649V204.957H223.054V197.335ZM230.649 197.335H238.243V204.957H230.649V197.335ZM238.243 197.335H245.838V204.957H238.243V197.335ZM245.838 197.335H253.432V204.957H245.838V197.335ZM253.432 197.335H261.027V204.957H253.432V197.335ZM261.027 197.335H268.622V204.957H261.027V197.335ZM276.216 197.335H283.811V204.957H276.216V197.335ZM283.811 197.335H291.405V204.957H283.811V197.335ZM18 204.957H25.5946V212.578H18V204.957ZM33.1892 204.957H40.7838V212.578H33.1892V204.957ZM40.7838 204.957H48.3784V212.578H40.7838V204.957ZM48.3784 204.957H55.973V212.578H48.3784V204.957ZM63.5676 204.957H71.1622V212.578H63.5676V204.957ZM78.7568 204.957H86.3513V212.578H78.7568V204.957ZM86.3513 204.957H93.9459V212.578H86.3513V204.957ZM93.9459 204.957H101.541V212.578H93.9459V204.957ZM116.73 204.957H124.324V212.578H116.73V204.957ZM139.514 204.957H147.108V212.578H139.514V204.957ZM154.703 204.957H162.297V212.578H154.703V204.957ZM162.297 204.957H169.892V212.578H162.297V204.957ZM169.892 204.957H177.486V212.578H169.892V204.957ZM177.486 204.957H185.081V212.578H177.486V204.957ZM185.081 204.957H192.676V212.578H185.081V204.957ZM192.676 204.957H200.27V212.578H192.676V204.957ZM207.865 204.957H215.459V212.578H207.865V204.957ZM223.054 204.957H230.649V212.578H223.054V204.957ZM238.243 204.957H245.838V212.578H238.243V204.957ZM245.838 204.957H253.432V212.578H245.838V204.957ZM253.432 204.957H261.027V212.578H253.432V204.957ZM261.027 204.957H268.622V212.578H261.027V204.957ZM283.811 204.957H291.405V212.578H283.811V204.957ZM291.405 204.957H299V212.578H291.405V204.957ZM18 212.578H25.5946V220.2H18V212.578ZM33.1892 212.578H40.7838V220.2H33.1892V212.578ZM40.7838 212.578H48.3784V220.2H40.7838V212.578ZM48.3784 212.578H55.973V220.2H48.3784V212.578ZM63.5676 212.578H71.1622V220.2H63.5676V212.578ZM78.7568 212.578H86.3513V220.2H78.7568V212.578ZM93.9459 212.578H101.541V220.2H93.9459V212.578ZM101.541 212.578H109.135V220.2H101.541V212.578ZM109.135 212.578H116.73V220.2H109.135V212.578ZM116.73 212.578H124.324V220.2H116.73V212.578ZM124.324 212.578H131.919V220.2H124.324V212.578ZM131.919 212.578H139.514V220.2H131.919V212.578ZM154.703 212.578H162.297V220.2H154.703V212.578ZM169.892 212.578H177.486V220.2H169.892V212.578ZM200.27 212.578H207.865V220.2H200.27V212.578ZM207.865 212.578H215.459V220.2H207.865V212.578ZM215.459 212.578H223.054V220.2H215.459V212.578ZM223.054 212.578H230.649V220.2H223.054V212.578ZM230.649 212.578H238.243V220.2H230.649V212.578ZM238.243 212.578H245.838V220.2H238.243V212.578ZM253.432 212.578H261.027V220.2H253.432V212.578ZM268.622 212.578H276.216V220.2H268.622V212.578ZM283.811 212.578H291.405V220.2H283.811V212.578ZM291.405 212.578H299V220.2H291.405V212.578ZM18 220.2H25.5946V227.822H18V220.2ZM63.5676 220.2H71.1622V227.822H63.5676V220.2ZM78.7568 220.2H86.3513V227.822H78.7568V220.2ZM93.9459 220.2H101.541V227.822H93.9459V220.2ZM101.541 220.2H109.135V227.822H101.541V220.2ZM131.919 220.2H139.514V227.822H131.919V220.2ZM154.703 220.2H162.297V227.822H154.703V220.2ZM169.892 220.2H177.486V227.822H169.892V220.2ZM177.486 220.2H185.081V227.822H177.486V220.2ZM185.081 220.2H192.676V227.822H185.081V220.2ZM200.27 220.2H207.865V227.822H200.27V220.2ZM223.054 220.2H230.649V227.822H223.054V220.2ZM230.649 220.2H238.243V227.822H230.649V220.2ZM238.243 220.2H245.838V227.822H238.243V220.2ZM245.838 220.2H253.432V227.822H245.838V220.2ZM268.622 220.2H276.216V227.822H268.622V220.2ZM291.405 220.2H299V227.822H291.405V220.2ZM18 227.822H25.5946V235.443H18V227.822ZM25.5946 227.822H33.1892V235.443H25.5946V227.822ZM33.1892 227.822H40.7838V235.443H33.1892V227.822ZM40.7838 227.822H48.3784V235.443H40.7838V227.822ZM48.3784 227.822H55.973V235.443H48.3784V227.822ZM55.973 227.822H63.5676V235.443H55.973V227.822ZM63.5676 227.822H71.1622V235.443H63.5676V227.822ZM78.7568 227.822H86.3513V235.443H78.7568V227.822ZM101.541 227.822H109.135V235.443H101.541V227.822ZM109.135 227.822H116.73V235.443H109.135V227.822ZM147.108 227.822H154.703V235.443H147.108V227.822ZM185.081 227.822H192.676V235.443H185.081V227.822ZM200.27 227.822H207.865V235.443H200.27V227.822ZM207.865 227.822H215.459V235.443H207.865V227.822ZM245.838 227.822H253.432V235.443H245.838V227.822ZM268.622 227.822H276.216V235.443H268.622V227.822ZM276.216 227.822H283.811V235.443H276.216V227.822ZM283.811 227.822H291.405V235.443H283.811V227.822ZM291.405 227.822H299V235.443H291.405V227.822Z" fill="white"/>
</g>
<path d="M77.4116 197.511C77.2885 197.009 77.0943 196.569 76.8292 196.19C76.564 195.802 76.2326 195.475 75.8349 195.21C75.4466 194.936 74.9921 194.732 74.4712 194.599C73.9599 194.457 73.3964 194.386 72.7809 194.386C71.4551 194.386 70.3235 194.704 69.386 195.338C68.458 195.973 67.7478 196.886 67.2553 198.08C66.7724 199.273 66.5309 200.712 66.5309 202.398C66.5309 204.102 66.7629 205.561 67.2269 206.773C67.6909 207.985 68.3822 208.913 69.3008 209.557C70.2193 210.201 71.3604 210.523 72.7241 210.523C73.9267 210.523 74.9258 210.348 75.7212 209.997C76.5262 209.647 77.1275 209.15 77.5252 208.506C77.9229 207.862 78.1218 207.104 78.1218 206.233L79.4854 206.375H72.8377V200.75H85.7354V204.784C85.7354 207.436 85.172 209.704 84.0451 211.588C82.9277 213.463 81.3841 214.902 79.4144 215.906C77.4542 216.901 75.2051 217.398 72.6673 217.398C69.8358 217.398 67.35 216.796 65.2099 215.594C63.0697 214.391 61.3983 212.677 60.1957 210.452C59.0025 208.226 58.4059 205.58 58.4059 202.511C58.4059 200.106 58.7705 197.975 59.4996 196.119C60.2383 194.263 61.261 192.696 62.5678 191.418C63.8746 190.13 65.3851 189.159 67.0991 188.506C68.8131 187.843 70.6502 187.511 72.6104 187.511C74.3339 187.511 75.9343 187.758 77.4116 188.25C78.8983 188.733 80.2099 189.424 81.3462 190.324C82.4921 191.214 83.4154 192.27 84.1161 193.491C84.8169 194.713 85.243 196.053 85.3945 197.511H77.4116ZM99.9862 217.398C97.6566 217.398 95.649 216.953 93.9634 216.062C92.2873 215.163 90.9947 213.875 90.0856 212.199C89.186 210.513 88.7362 208.496 88.7362 206.148C88.7362 203.894 89.1907 201.924 90.0998 200.239C91.0089 198.553 92.292 197.241 93.9492 196.304C95.6064 195.366 97.5619 194.898 99.8157 194.898C101.463 194.898 102.955 195.153 104.29 195.665C105.625 196.176 106.766 196.92 107.713 197.895C108.66 198.861 109.39 200.035 109.901 201.418C110.412 202.8 110.668 204.358 110.668 206.091V207.909H91.1793V203.591H103.452C103.443 202.966 103.282 202.417 102.969 201.943C102.666 201.46 102.254 201.086 101.733 200.821C101.222 200.546 100.64 200.409 99.9862 200.409C99.3517 200.409 98.7693 200.546 98.239 200.821C97.7087 201.086 97.2826 201.455 96.9606 201.929C96.6481 202.402 96.4824 202.956 96.4634 203.591V208.25C96.4634 208.951 96.6102 209.576 96.9038 210.125C97.1973 210.674 97.6187 211.105 98.168 211.418C98.7172 211.73 99.3801 211.886 100.157 211.886C100.696 211.886 101.189 211.811 101.634 211.659C102.088 211.508 102.477 211.29 102.799 211.006C103.121 210.712 103.357 210.362 103.509 209.955H110.668C110.422 211.47 109.839 212.786 108.921 213.903C108.002 215.011 106.785 215.873 105.27 216.489C103.765 217.095 102.003 217.398 99.9862 217.398ZM121.708 204.727V217H113.868V195.182H121.311V199.33H121.538C122.011 197.947 122.845 196.863 124.038 196.077C125.241 195.291 126.642 194.898 128.243 194.898C129.786 194.898 131.126 195.253 132.262 195.963C133.408 196.664 134.294 197.63 134.919 198.861C135.553 200.092 135.866 201.498 135.856 203.08V217H128.015V204.727C128.025 203.648 127.75 202.8 127.191 202.185C126.642 201.569 125.875 201.261 124.89 201.261C124.246 201.261 123.683 201.403 123.2 201.688C122.726 201.962 122.362 202.36 122.106 202.881C121.85 203.392 121.718 204.008 121.708 204.727ZM150.181 217.398C147.852 217.398 145.844 216.953 144.159 216.062C142.483 215.163 141.19 213.875 140.281 212.199C139.381 210.513 138.931 208.496 138.931 206.148C138.931 203.894 139.386 201.924 140.295 200.239C141.204 198.553 142.487 197.241 144.145 196.304C145.802 195.366 147.757 194.898 150.011 194.898C151.659 194.898 153.15 195.153 154.485 195.665C155.821 196.176 156.962 196.92 157.909 197.895C158.856 198.861 159.585 200.035 160.096 201.418C160.608 202.8 160.863 204.358 160.863 206.091V207.909H141.375V203.591H153.647C153.638 202.966 153.477 202.417 153.164 201.943C152.861 201.46 152.449 201.086 151.929 200.821C151.417 200.546 150.835 200.409 150.181 200.409C149.547 200.409 148.965 200.546 148.434 200.821C147.904 201.086 147.478 201.455 147.156 201.929C146.843 202.402 146.678 202.956 146.659 203.591V208.25C146.659 208.951 146.806 209.576 147.099 210.125C147.393 210.674 147.814 211.105 148.363 211.418C148.913 211.73 149.575 211.886 150.352 211.886C150.892 211.886 151.384 211.811 151.829 211.659C152.284 211.508 152.672 211.29 152.994 211.006C153.316 210.712 153.553 210.362 153.704 209.955H160.863C160.617 211.47 160.035 212.786 159.116 213.903C158.198 215.011 156.981 215.873 155.466 216.489C153.96 217.095 152.199 217.398 150.181 217.398ZM164.063 217V195.182H171.676V199.33H171.904C172.301 197.795 172.931 196.673 173.793 195.963C174.664 195.253 175.682 194.898 176.847 194.898C177.188 194.898 177.524 194.926 177.855 194.983C178.196 195.03 178.523 195.101 178.836 195.196V201.886C178.447 201.754 177.969 201.654 177.401 201.588C176.833 201.522 176.345 201.489 175.938 201.489C175.171 201.489 174.48 201.664 173.864 202.014C173.258 202.355 172.78 202.838 172.429 203.463C172.079 204.079 171.904 204.803 171.904 205.636V217H164.063ZM186.471 217.341C185.078 217.341 183.847 217.114 182.777 216.659C181.717 216.195 180.883 215.494 180.277 214.557C179.671 213.619 179.368 212.426 179.368 210.977C179.368 209.784 179.572 208.766 179.979 207.923C180.386 207.071 180.954 206.375 181.684 205.835C182.413 205.295 183.26 204.884 184.226 204.599C185.202 204.315 186.253 204.131 187.38 204.045C188.601 203.951 189.581 203.837 190.32 203.705C191.068 203.562 191.608 203.368 191.939 203.122C192.271 202.866 192.436 202.53 192.436 202.114V202.057C192.436 201.489 192.219 201.053 191.783 200.75C191.347 200.447 190.789 200.295 190.107 200.295C189.359 200.295 188.748 200.461 188.275 200.793C187.81 201.115 187.531 201.612 187.436 202.284H180.221C180.315 200.958 180.737 199.737 181.485 198.619C182.242 197.492 183.346 196.593 184.794 195.92C186.243 195.239 188.052 194.898 190.221 194.898C191.783 194.898 193.185 195.082 194.425 195.452C195.666 195.812 196.721 196.318 197.593 196.972C198.464 197.616 199.127 198.373 199.581 199.244C200.045 200.106 200.277 201.044 200.277 202.057V217H192.948V213.932H192.777C192.342 214.746 191.811 215.404 191.186 215.906C190.571 216.408 189.865 216.773 189.07 217C188.284 217.227 187.417 217.341 186.471 217.341ZM189.027 212.398C189.624 212.398 190.183 212.275 190.703 212.028C191.234 211.782 191.665 211.427 191.996 210.963C192.328 210.499 192.493 209.936 192.493 209.273V207.455C192.285 207.54 192.062 207.62 191.826 207.696C191.598 207.772 191.352 207.843 191.087 207.909C190.831 207.975 190.557 208.037 190.263 208.094C189.979 208.151 189.681 208.203 189.368 208.25C188.762 208.345 188.265 208.501 187.877 208.719C187.498 208.927 187.214 209.188 187.025 209.5C186.845 209.803 186.755 210.144 186.755 210.523C186.755 211.129 186.968 211.593 187.394 211.915C187.82 212.237 188.364 212.398 189.027 212.398ZM217.035 195.182V200.864H202.66V195.182H217.035ZM205.444 189.955H213.285V209.983C213.285 210.286 213.337 210.542 213.441 210.75C213.546 210.949 213.707 211.1 213.924 211.205C214.142 211.299 214.422 211.347 214.762 211.347C214.999 211.347 215.274 211.318 215.586 211.261C215.908 211.205 216.145 211.157 216.297 211.119L217.433 216.631C217.083 216.735 216.581 216.863 215.927 217.014C215.283 217.166 214.516 217.265 213.626 217.312C211.827 217.407 210.316 217.223 209.095 216.759C207.873 216.285 206.955 215.542 206.339 214.528C205.724 213.515 205.425 212.246 205.444 210.722V189.955ZM230.512 217.398C228.144 217.398 226.118 216.929 224.432 215.991C222.747 215.045 221.454 213.728 220.554 212.043C219.655 210.348 219.205 208.383 219.205 206.148C219.205 203.913 219.655 201.953 220.554 200.267C221.454 198.572 222.747 197.256 224.432 196.318C226.118 195.371 228.144 194.898 230.512 194.898C232.879 194.898 234.906 195.371 236.591 196.318C238.277 197.256 239.569 198.572 240.469 200.267C241.369 201.953 241.819 203.913 241.819 206.148C241.819 208.383 241.369 210.348 240.469 212.043C239.569 213.728 238.277 215.045 236.591 215.991C234.906 216.929 232.879 217.398 230.512 217.398ZM230.569 211.602C231.231 211.602 231.804 211.38 232.287 210.935C232.77 210.49 233.144 209.855 233.409 209.031C233.675 208.207 233.807 207.227 233.807 206.091C233.807 204.945 233.675 203.965 233.409 203.151C233.144 202.327 232.77 201.692 232.287 201.247C231.804 200.802 231.231 200.58 230.569 200.58C229.868 200.58 229.266 200.802 228.765 201.247C228.263 201.692 227.879 202.327 227.614 203.151C227.349 203.965 227.216 204.945 227.216 206.091C227.216 207.227 227.349 208.207 227.614 209.031C227.879 209.855 228.263 210.49 228.765 210.935C229.266 211.38 229.868 211.602 230.569 211.602ZM245 217V195.182H252.614V199.33H252.841C253.239 197.795 253.869 196.673 254.73 195.963C255.602 195.253 256.62 194.898 257.784 194.898C258.125 194.898 258.462 194.926 258.793 194.983C259.134 195.03 259.461 195.101 259.773 195.196V201.886C259.385 201.754 258.907 201.654 258.338 201.588C257.77 201.522 257.283 201.489 256.875 201.489C256.108 201.489 255.417 201.664 254.801 202.014C254.195 202.355 253.717 202.838 253.367 203.463C253.016 204.079 252.841 204.803 252.841 205.636V217H245Z" fill="white"/>
</svg>
