<svg width="316" height="235" viewBox="0 0 316 235" fill="none" xmlns="http://www.w3.org/2000/svg">
<mask id="mask0_1_3" style="mask-type:alpha" maskUnits="userSpaceOnUse" x="16" y="20" width="283" height="159">
<path d="M73.625 113.466H104.307L115.386 127.386L134.136 148.693L158.568 178.239H123.625L106.295 158.068L94.6477 141.307L73.625 113.466ZM158.284 94.7159C158.284 110.909 155.135 124.569 148.838 135.696C142.541 146.776 134.042 155.18 123.341 160.909C112.64 166.591 100.708 169.432 87.5455 169.432C74.2879 169.432 62.3087 166.567 51.608 160.838C40.9545 155.062 32.4792 146.634 26.1818 135.554C19.9318 124.427 16.8068 110.814 16.8068 94.7159C16.8068 78.5227 19.9318 64.8864 26.1818 53.8068C32.4792 42.6799 40.9545 34.2756 51.608 28.5938C62.3087 22.8646 74.2879 20 87.5455 20C100.708 20 112.64 22.8646 123.341 28.5938C134.042 34.2756 142.541 42.6799 148.838 53.8068C155.135 64.8864 158.284 78.5227 158.284 94.7159ZM117.659 94.7159C117.659 86.0038 116.499 78.6648 114.179 72.6989C111.906 66.6856 108.521 62.1402 104.023 59.0625C99.572 55.9375 94.0795 54.375 87.5455 54.375C81.0114 54.375 75.4953 55.9375 70.9972 59.0625C66.5464 62.1402 63.161 66.6856 60.8409 72.6989C58.5682 78.6648 57.4318 86.0038 57.4318 94.7159C57.4318 103.428 58.5682 110.791 60.8409 116.804C63.161 122.77 66.5464 127.315 70.9972 130.44C75.4953 133.518 81.0114 135.057 87.5455 135.057C94.0795 135.057 99.572 133.518 104.023 130.44C108.521 127.315 111.906 122.77 114.179 116.804C116.499 110.791 117.659 103.428 117.659 94.7159Z" fill="black"/>
<path d="M176.75 167.443V21.9886H239.534C250.33 21.9886 259.776 23.9536 267.872 27.8835C275.969 31.8135 282.266 37.4716 286.764 44.858C291.262 52.2443 293.511 61.0985 293.511 71.4205C293.511 81.8371 291.191 90.6203 286.551 97.7699C281.958 104.92 275.495 110.317 267.162 113.963C258.876 117.609 249.193 119.432 238.114 119.432H200.614V88.75H230.159C234.799 88.75 238.753 88.1818 242.02 87.0455C245.334 85.8617 247.867 83.9915 249.619 81.4347C251.419 78.8778 252.318 75.5398 252.318 71.4205C252.318 67.2538 251.419 63.8684 249.619 61.2642C247.867 58.6127 245.334 56.6714 242.02 55.4403C238.753 54.1619 234.799 53.5227 230.159 53.5227H216.239V167.443H176.75ZM261.977 100.682L298.341 167.443H255.443L219.932 100.682H261.977Z" fill="black"/>
</mask>
<g mask="url(#mask0_1_3)">
<path d="M17 -46.5568H24.5946V-38.9352H17V-46.5568ZM24.5946 -46.5568H32.1892V-38.9352H24.5946V-46.5568ZM32.1892 -46.5568H39.7838V-38.9352H32.1892V-46.5568ZM39.7838 -46.5568H47.3784V-38.9352H39.7838V-46.5568ZM47.3784 -46.5568H54.973V-38.9352H47.3784V-46.5568ZM54.973 -46.5568H62.5676V-38.9352H54.973V-46.5568ZM62.5676 -46.5568H70.1622V-38.9352H62.5676V-46.5568ZM85.3513 -46.5568H92.9459V-38.9352H85.3513V-46.5568ZM138.514 -46.5568H146.108V-38.9352H138.514V-46.5568ZM146.108 -46.5568H153.703V-38.9352H146.108V-46.5568ZM153.703 -46.5568H161.297V-38.9352H153.703V-46.5568ZM161.297 -46.5568H168.892V-38.9352H161.297V-46.5568ZM168.892 -46.5568H176.486V-38.9352H168.892V-46.5568ZM176.486 -46.5568H184.081V-38.9352H176.486V-46.5568ZM191.676 -46.5568H199.27V-38.9352H191.676V-46.5568ZM214.459 -46.5568H222.054V-38.9352H214.459V-46.5568ZM229.649 -46.5568H237.243V-38.9352H229.649V-46.5568ZM244.838 -46.5568H252.432V-38.9352H244.838V-46.5568ZM252.432 -46.5568H260.027V-38.9352H252.432V-46.5568ZM260.027 -46.5568H267.622V-38.9352H260.027V-46.5568ZM267.622 -46.5568H275.216V-38.9352H267.622V-46.5568ZM275.216 -46.5568H282.811V-38.9352H275.216V-46.5568ZM282.811 -46.5568H290.405V-38.9352H282.811V-46.5568ZM290.405 -46.5568H298V-38.9352H290.405V-46.5568ZM17 -38.9352H24.5946V-31.3136H17V-38.9352ZM62.5676 -38.9352H70.1622V-31.3136H62.5676V-38.9352ZM77.7568 -38.9352H85.3513V-31.3136H77.7568V-38.9352ZM85.3513 -38.9352H92.9459V-31.3136H85.3513V-38.9352ZM100.541 -38.9352H108.135V-31.3136H100.541V-38.9352ZM108.135 -38.9352H115.73V-31.3136H108.135V-38.9352ZM115.73 -38.9352H123.324V-31.3136H115.73V-38.9352ZM130.919 -38.9352H138.514V-31.3136H130.919V-38.9352ZM138.514 -38.9352H146.108V-31.3136H138.514V-38.9352ZM146.108 -38.9352H153.703V-31.3136H146.108V-38.9352ZM168.892 -38.9352H176.486V-31.3136H168.892V-38.9352ZM176.486 -38.9352H184.081V-31.3136H176.486V-38.9352ZM184.081 -38.9352H191.676V-31.3136H184.081V-38.9352ZM199.27 -38.9352H206.865V-31.3136H199.27V-38.9352ZM206.865 -38.9352H214.459V-31.3136H206.865V-38.9352ZM222.054 -38.9352H229.649V-31.3136H222.054V-38.9352ZM229.649 -38.9352H237.243V-31.3136H229.649V-38.9352ZM244.838 -38.9352H252.432V-31.3136H244.838V-38.9352ZM290.405 -38.9352H298V-31.3136H290.405V-38.9352ZM17 -31.3136H24.5946V-23.6919H17V-31.3136ZM32.1892 -31.3136H39.7838V-23.6919H32.1892V-31.3136ZM39.7838 -31.3136H47.3784V-23.6919H39.7838V-31.3136ZM47.3784 -31.3136H54.973V-23.6919H47.3784V-31.3136ZM62.5676 -31.3136H70.1622V-23.6919H62.5676V-31.3136ZM85.3513 -31.3136H92.9459V-23.6919H85.3513V-31.3136ZM92.9459 -31.3136H100.541V-23.6919H92.9459V-31.3136ZM100.541 -31.3136H108.135V-23.6919H100.541V-31.3136ZM123.324 -31.3136H130.919V-23.6919H123.324V-31.3136ZM176.486 -31.3136H184.081V-23.6919H176.486V-31.3136ZM184.081 -31.3136H191.676V-23.6919H184.081V-31.3136ZM214.459 -31.3136H222.054V-23.6919H214.459V-31.3136ZM244.838 -31.3136H252.432V-23.6919H244.838V-31.3136ZM260.027 -31.3136H267.622V-23.6919H260.027V-31.3136ZM267.622 -31.3136H275.216V-23.6919H267.622V-31.3136ZM275.216 -31.3136H282.811V-23.6919H275.216V-31.3136ZM290.405 -31.3136H298V-23.6919H290.405V-31.3136ZM17 -23.6919H24.5946V-16.0703H17V-23.6919ZM32.1892 -23.6919H39.7838V-16.0703H32.1892V-23.6919ZM39.7838 -23.6919H47.3784V-16.0703H39.7838V-23.6919ZM47.3784 -23.6919H54.973V-16.0703H47.3784V-23.6919ZM62.5676 -23.6919H70.1622V-16.0703H62.5676V-23.6919ZM77.7568 -23.6919H85.3513V-16.0703H77.7568V-23.6919ZM85.3513 -23.6919H92.9459V-16.0703H85.3513V-23.6919ZM100.541 -23.6919H108.135V-16.0703H100.541V-23.6919ZM115.73 -23.6919H123.324V-16.0703H115.73V-23.6919ZM123.324 -23.6919H130.919V-16.0703H123.324V-23.6919ZM130.919 -23.6919H138.514V-16.0703H130.919V-23.6919ZM138.514 -23.6919H146.108V-16.0703H138.514V-23.6919ZM146.108 -23.6919H153.703V-16.0703H146.108V-23.6919ZM161.297 -23.6919H168.892V-16.0703H161.297V-23.6919ZM168.892 -23.6919H176.486V-16.0703H168.892V-23.6919ZM199.27 -23.6919H206.865V-16.0703H199.27V-23.6919ZM206.865 -23.6919H214.459V-16.0703H206.865V-23.6919ZM244.838 -23.6919H252.432V-16.0703H244.838V-23.6919ZM260.027 -23.6919H267.622V-16.0703H260.027V-23.6919ZM267.622 -23.6919H275.216V-16.0703H267.622V-23.6919ZM275.216 -23.6919H282.811V-16.0703H275.216V-23.6919ZM290.405 -23.6919H298V-16.0703H290.405V-23.6919ZM17 -16.0703H24.5946V-8.4487H17V-16.0703ZM32.1892 -16.0703H39.7838V-8.4487H32.1892V-16.0703ZM39.7838 -16.0703H47.3784V-8.4487H39.7838V-16.0703ZM47.3784 -16.0703H54.973V-8.4487H47.3784V-16.0703ZM62.5676 -16.0703H70.1622V-8.4487H62.5676V-16.0703ZM92.9459 -16.0703H100.541V-8.4487H92.9459V-16.0703ZM108.135 -16.0703H115.73V-8.4487H108.135V-16.0703ZM138.514 -16.0703H146.108V-8.4487H138.514V-16.0703ZM161.297 -16.0703H168.892V-8.4487H161.297V-16.0703ZM168.892 -16.0703H176.486V-8.4487H168.892V-16.0703ZM191.676 -16.0703H199.27V-8.4487H191.676V-16.0703ZM229.649 -16.0703H237.243V-8.4487H229.649V-16.0703ZM244.838 -16.0703H252.432V-8.4487H244.838V-16.0703ZM260.027 -16.0703H267.622V-8.4487H260.027V-16.0703ZM267.622 -16.0703H275.216V-8.4487H267.622V-16.0703ZM275.216 -16.0703H282.811V-8.4487H275.216V-16.0703ZM290.405 -16.0703H298V-8.4487H290.405V-16.0703ZM17 -8.4487H24.5946V-0.82708H17V-8.4487ZM62.5676 -8.4487H70.1622V-0.82708H62.5676V-8.4487ZM77.7568 -8.4487H85.3513V-0.82708H77.7568V-8.4487ZM92.9459 -8.4487H100.541V-0.82708H92.9459V-8.4487ZM130.919 -8.4487H138.514V-0.82708H130.919V-8.4487ZM184.081 -8.4487H191.676V-0.82708H184.081V-8.4487ZM222.054 -8.4487H229.649V-0.82708H222.054V-8.4487ZM229.649 -8.4487H237.243V-0.82708H229.649V-8.4487ZM244.838 -8.4487H252.432V-0.82708H244.838V-8.4487ZM290.405 -8.4487H298V-0.82708H290.405V-8.4487ZM17 -0.82708H24.5946V6.79454H17V-0.82708ZM24.5946 -0.82708H32.1892V6.79454H24.5946V-0.82708ZM32.1892 -0.82708H39.7838V6.79454H32.1892V-0.82708ZM39.7838 -0.82708H47.3784V6.79454H39.7838V-0.82708ZM47.3784 -0.82708H54.973V6.79454H47.3784V-0.82708ZM54.973 -0.82708H62.5676V6.79454H54.973V-0.82708ZM62.5676 -0.82708H70.1622V6.79454H62.5676V-0.82708ZM77.7568 -0.82708H85.3513V6.79454H77.7568V-0.82708ZM92.9459 -0.82708H100.541V6.79454H92.9459V-0.82708ZM108.135 -0.82708H115.73V6.79454H108.135V-0.82708ZM123.324 -0.82708H130.919V6.79454H123.324V-0.82708ZM138.514 -0.82708H146.108V6.79454H138.514V-0.82708ZM153.703 -0.82708H161.297V6.79454H153.703V-0.82708ZM168.892 -0.82708H176.486V6.79454H168.892V-0.82708ZM184.081 -0.82708H191.676V6.79454H184.081V-0.82708ZM199.27 -0.82708H206.865V6.79454H199.27V-0.82708ZM214.459 -0.82708H222.054V6.79454H214.459V-0.82708ZM229.649 -0.82708H237.243V6.79454H229.649V-0.82708ZM244.838 -0.82708H252.432V6.79454H244.838V-0.82708ZM252.432 -0.82708H260.027V6.79454H252.432V-0.82708ZM260.027 -0.82708H267.622V6.79454H260.027V-0.82708ZM267.622 -0.82708H275.216V6.79454H267.622V-0.82708ZM275.216 -0.82708H282.811V6.79454H275.216V-0.82708ZM282.811 -0.82708H290.405V6.79454H282.811V-0.82708ZM290.405 -0.82708H298V6.79454H290.405V-0.82708ZM108.135 6.79454H115.73V14.4162H108.135V6.79454ZM123.324 6.79454H130.919V14.4162H123.324V6.79454ZM130.919 6.79454H138.514V14.4162H130.919V6.79454ZM176.486 6.79454H184.081V14.4162H176.486V6.79454ZM191.676 6.79454H199.27V14.4162H191.676V6.79454ZM229.649 6.79454H237.243V14.4162H229.649V6.79454ZM17 14.4162H24.5946V22.0378H17V14.4162ZM24.5946 14.4162H32.1892V22.0378H24.5946V14.4162ZM32.1892 14.4162H39.7838V22.0378H32.1892V14.4162ZM39.7838 14.4162H47.3784V22.0378H39.7838V14.4162ZM47.3784 14.4162H54.973V22.0378H47.3784V14.4162ZM62.5676 14.4162H70.1622V22.0378H62.5676V14.4162ZM70.1622 14.4162H77.7568V22.0378H70.1622V14.4162ZM77.7568 14.4162H85.3513V22.0378H77.7568V14.4162ZM85.3513 14.4162H92.9459V22.0378H85.3513V14.4162ZM92.9459 14.4162H100.541V22.0378H92.9459V14.4162ZM108.135 14.4162H115.73V22.0378H108.135V14.4162ZM115.73 14.4162H123.324V22.0378H115.73V14.4162ZM123.324 14.4162H130.919V22.0378H123.324V14.4162ZM130.919 14.4162H138.514V22.0378H130.919V14.4162ZM146.108 14.4162H153.703V22.0378H146.108V14.4162ZM153.703 14.4162H161.297V22.0378H153.703V14.4162ZM191.676 14.4162H199.27V22.0378H191.676V14.4162ZM199.27 14.4162H206.865V22.0378H199.27V14.4162ZM206.865 14.4162H214.459V22.0378H206.865V14.4162ZM214.459 14.4162H222.054V22.0378H214.459V14.4162ZM237.243 14.4162H244.838V22.0378H237.243V14.4162ZM252.432 14.4162H260.027V22.0378H252.432V14.4162ZM267.622 14.4162H275.216V22.0378H267.622V14.4162ZM282.811 14.4162H290.405V22.0378H282.811V14.4162ZM24.5946 22.0378H32.1892V29.6594H24.5946V22.0378ZM39.7838 22.0378H47.3784V29.6594H39.7838V22.0378ZM47.3784 22.0378H54.973V29.6594H47.3784V22.0378ZM70.1622 22.0378H77.7568V29.6594H70.1622V22.0378ZM85.3513 22.0378H92.9459V29.6594H85.3513V22.0378ZM115.73 22.0378H123.324V29.6594H115.73V22.0378ZM153.703 22.0378H161.297V29.6594H153.703V22.0378ZM161.297 22.0378H168.892V29.6594H161.297V22.0378ZM176.486 22.0378H184.081V29.6594H176.486V22.0378ZM191.676 22.0378H199.27V29.6594H191.676V22.0378ZM206.865 22.0378H214.459V29.6594H206.865V22.0378ZM229.649 22.0378H237.243V29.6594H229.649V22.0378ZM237.243 22.0378H244.838V29.6594H237.243V22.0378ZM252.432 22.0378H260.027V29.6594H252.432V22.0378ZM267.622 22.0378H275.216V29.6594H267.622V22.0378ZM275.216 22.0378H282.811V29.6594H275.216V22.0378ZM17 29.6594H24.5946V37.281H17V29.6594ZM54.973 29.6594H62.5676V37.281H54.973V29.6594ZM62.5676 29.6594H70.1622V37.281H62.5676V29.6594ZM100.541 29.6594H108.135V37.281H100.541V29.6594ZM108.135 29.6594H115.73V37.281H108.135V29.6594ZM115.73 29.6594H123.324V37.281H115.73V29.6594ZM123.324 29.6594H130.919V37.281H123.324V29.6594ZM130.919 29.6594H138.514V37.281H130.919V29.6594ZM138.514 29.6594H146.108V37.281H138.514V29.6594ZM153.703 29.6594H161.297V37.281H153.703V29.6594ZM176.486 29.6594H184.081V37.281H176.486V29.6594ZM206.865 29.6594H214.459V37.281H206.865V29.6594ZM214.459 29.6594H222.054V37.281H214.459V29.6594ZM222.054 29.6594H229.649V37.281H222.054V29.6594ZM229.649 29.6594H237.243V37.281H229.649V29.6594ZM237.243 29.6594H244.838V37.281H237.243V29.6594ZM244.838 29.6594H252.432V37.281H244.838V29.6594ZM282.811 29.6594H290.405V37.281H282.811V29.6594ZM290.405 29.6594H298V37.281H290.405V29.6594ZM47.3784 37.281H54.973V44.9026H47.3784V37.281ZM70.1622 37.281H77.7568V44.9026H70.1622V37.281ZM77.7568 37.281H85.3513V44.9026H77.7568V37.281ZM100.541 37.281H108.135V44.9026H100.541V37.281ZM138.514 37.281H146.108V44.9026H138.514V37.281ZM153.703 37.281H161.297V44.9026H153.703V37.281ZM168.892 37.281H176.486V44.9026H168.892V37.281ZM176.486 37.281H184.081V44.9026H176.486V37.281ZM191.676 37.281H199.27V44.9026H191.676V37.281ZM199.27 37.281H206.865V44.9026H199.27V37.281ZM229.649 37.281H237.243V44.9026H229.649V37.281ZM244.838 37.281H252.432V44.9026H244.838V37.281ZM290.405 37.281H298V44.9026H290.405V37.281ZM24.5946 44.9026H32.1892V52.5243H24.5946V44.9026ZM47.3784 44.9026H54.973V52.5243H47.3784V44.9026ZM62.5676 44.9026H70.1622V52.5243H62.5676V44.9026ZM77.7568 44.9026H85.3513V52.5243H77.7568V44.9026ZM85.3513 44.9026H92.9459V52.5243H85.3513V44.9026ZM100.541 44.9026H108.135V52.5243H100.541V44.9026ZM115.73 44.9026H123.324V52.5243H115.73V44.9026ZM146.108 44.9026H153.703V52.5243H146.108V44.9026ZM161.297 44.9026H168.892V52.5243H161.297V44.9026ZM176.486 44.9026H184.081V52.5243H176.486V44.9026ZM184.081 44.9026H191.676V52.5243H184.081V44.9026ZM199.27 44.9026H206.865V52.5243H199.27V44.9026ZM206.865 44.9026H214.459V52.5243H206.865V44.9026ZM214.459 44.9026H222.054V52.5243H214.459V44.9026ZM237.243 44.9026H244.838V52.5243H237.243V44.9026ZM244.838 44.9026H252.432V52.5243H244.838V44.9026ZM260.027 44.9026H267.622V52.5243H260.027V44.9026ZM275.216 44.9026H282.811V52.5243H275.216V44.9026ZM290.405 44.9026H298V52.5243H290.405V44.9026ZM24.5946 52.5243H32.1892V60.1459H24.5946V52.5243ZM32.1892 52.5243H39.7838V60.1459H32.1892V52.5243ZM47.3784 52.5243H54.973V60.1459H47.3784V52.5243ZM85.3513 52.5243H92.9459V60.1459H85.3513V52.5243ZM108.135 52.5243H115.73V60.1459H108.135V52.5243ZM138.514 52.5243H146.108V60.1459H138.514V52.5243ZM153.703 52.5243H161.297V60.1459H153.703V52.5243ZM161.297 52.5243H168.892V60.1459H161.297V52.5243ZM206.865 52.5243H214.459V60.1459H206.865V52.5243ZM229.649 52.5243H237.243V60.1459H229.649V52.5243ZM267.622 52.5243H275.216V60.1459H267.622V52.5243ZM24.5946 60.1459H32.1892V67.7675H24.5946V60.1459ZM47.3784 60.1459H54.973V67.7675H47.3784V60.1459ZM62.5676 60.1459H70.1622V67.7675H62.5676V60.1459ZM70.1622 60.1459H77.7568V67.7675H70.1622V60.1459ZM130.919 60.1459H138.514V67.7675H130.919V60.1459ZM168.892 60.1459H176.486V67.7675H168.892V60.1459ZM176.486 60.1459H184.081V67.7675H176.486V60.1459ZM199.27 60.1459H206.865V67.7675H199.27V60.1459ZM222.054 60.1459H229.649V67.7675H222.054V60.1459ZM237.243 60.1459H244.838V67.7675H237.243V60.1459ZM244.838 60.1459H252.432V67.7675H244.838V60.1459ZM252.432 60.1459H260.027V67.7675H252.432V60.1459ZM275.216 60.1459H282.811V67.7675H275.216V60.1459ZM290.405 60.1459H298V67.7675H290.405V60.1459ZM39.7838 67.7675H47.3784V75.3891H39.7838V67.7675ZM47.3784 67.7675H54.973V75.3891H47.3784V67.7675ZM70.1622 67.7675H77.7568V75.3891H70.1622V67.7675ZM92.9459 67.7675H100.541V75.3891H92.9459V67.7675ZM108.135 67.7675H115.73V75.3891H108.135V67.7675ZM130.919 67.7675H138.514V75.3891H130.919V67.7675ZM138.514 67.7675H146.108V75.3891H138.514V67.7675ZM153.703 67.7675H161.297V75.3891H153.703V67.7675ZM161.297 67.7675H168.892V75.3891H161.297V67.7675ZM176.486 67.7675H184.081V75.3891H176.486V67.7675ZM184.081 67.7675H191.676V75.3891H184.081V67.7675ZM199.27 67.7675H206.865V75.3891H199.27V67.7675ZM214.459 67.7675H222.054V75.3891H214.459V67.7675ZM222.054 67.7675H229.649V75.3891H222.054V67.7675ZM229.649 67.7675H237.243V75.3891H229.649V67.7675ZM237.243 67.7675H244.838V75.3891H237.243V67.7675ZM244.838 67.7675H252.432V75.3891H244.838V67.7675ZM252.432 67.7675H260.027V75.3891H252.432V67.7675ZM267.622 67.7675H275.216V75.3891H267.622V67.7675ZM282.811 67.7675H290.405V75.3891H282.811V67.7675ZM17 75.3891H24.5946V83.0108H17V75.3891ZM47.3784 75.3891H54.973V83.0108H47.3784V75.3891ZM54.973 75.3891H62.5676V83.0108H54.973V75.3891ZM62.5676 75.3891H70.1622V83.0108H62.5676V75.3891ZM70.1622 75.3891H77.7568V83.0108H70.1622V75.3891ZM85.3513 75.3891H92.9459V83.0108H85.3513V75.3891ZM92.9459 75.3891H100.541V83.0108H92.9459V75.3891ZM108.135 75.3891H115.73V83.0108H108.135V75.3891ZM115.73 75.3891H123.324V83.0108H115.73V75.3891ZM123.324 75.3891H130.919V83.0108H123.324V75.3891ZM130.919 75.3891H138.514V83.0108H130.919V75.3891ZM138.514 75.3891H146.108V83.0108H138.514V75.3891ZM146.108 75.3891H153.703V83.0108H146.108V75.3891ZM168.892 75.3891H176.486V83.0108H168.892V75.3891ZM199.27 75.3891H206.865V83.0108H199.27V75.3891ZM206.865 75.3891H214.459V83.0108H206.865V75.3891ZM214.459 75.3891H222.054V83.0108H214.459V75.3891ZM237.243 75.3891H244.838V83.0108H237.243V75.3891ZM244.838 75.3891H252.432V83.0108H244.838V75.3891ZM260.027 75.3891H267.622V83.0108H260.027V75.3891ZM267.622 75.3891H275.216V83.0108H267.622V75.3891ZM275.216 75.3891H282.811V83.0108H275.216V75.3891ZM290.405 75.3891H298V83.0108H290.405V75.3891ZM24.5946 83.0108H32.1892V90.6324H24.5946V83.0108ZM47.3784 83.0108H54.973V90.6324H47.3784V83.0108ZM54.973 83.0108H62.5676V90.6324H54.973V83.0108ZM70.1622 83.0108H77.7568V90.6324H70.1622V83.0108ZM77.7568 83.0108H85.3513V90.6324H77.7568V83.0108ZM123.324 83.0108H130.919V90.6324H123.324V83.0108ZM138.514 83.0108H146.108V90.6324H138.514V83.0108ZM146.108 83.0108H153.703V90.6324H146.108V83.0108ZM153.703 83.0108H161.297V90.6324H153.703V83.0108ZM161.297 83.0108H168.892V90.6324H161.297V83.0108ZM168.892 83.0108H176.486V90.6324H168.892V83.0108ZM176.486 83.0108H184.081V90.6324H176.486V83.0108ZM191.676 83.0108H199.27V90.6324H191.676V83.0108ZM199.27 83.0108H206.865V90.6324H199.27V83.0108ZM229.649 83.0108H237.243V90.6324H229.649V83.0108ZM237.243 83.0108H244.838V90.6324H237.243V83.0108ZM252.432 83.0108H260.027V90.6324H252.432V83.0108ZM267.622 83.0108H275.216V90.6324H267.622V83.0108ZM282.811 83.0108H290.405V90.6324H282.811V83.0108ZM39.7838 90.6324H47.3784V98.254H39.7838V90.6324ZM47.3784 90.6324H54.973V98.254H47.3784V90.6324ZM54.973 90.6324H62.5676V98.254H54.973V90.6324ZM62.5676 90.6324H70.1622V98.254H62.5676V90.6324ZM70.1622 90.6324H77.7568V98.254H70.1622V90.6324ZM85.3513 90.6324H92.9459V98.254H85.3513V90.6324ZM100.541 90.6324H108.135V98.254H100.541V90.6324ZM108.135 90.6324H115.73V98.254H108.135V90.6324ZM123.324 90.6324H130.919V98.254H123.324V90.6324ZM130.919 90.6324H138.514V98.254H130.919V90.6324ZM146.108 90.6324H153.703V98.254H146.108V90.6324ZM168.892 90.6324H176.486V98.254H168.892V90.6324ZM176.486 90.6324H184.081V98.254H176.486V90.6324ZM199.27 90.6324H206.865V98.254H199.27V90.6324ZM206.865 90.6324H214.459V98.254H206.865V90.6324ZM222.054 90.6324H229.649V98.254H222.054V90.6324ZM252.432 90.6324H260.027V98.254H252.432V90.6324ZM267.622 90.6324H275.216V98.254H267.622V90.6324ZM282.811 90.6324H290.405V98.254H282.811V90.6324ZM290.405 90.6324H298V98.254H290.405V90.6324ZM47.3784 98.254H54.973V105.876H47.3784V98.254ZM77.7568 98.254H85.3513V105.876H77.7568V98.254ZM85.3513 98.254H92.9459V105.876H85.3513V98.254ZM100.541 98.254H108.135V105.876H100.541V98.254ZM130.919 98.254H138.514V105.876H130.919V98.254ZM168.892 98.254H176.486V105.876H168.892V98.254ZM176.486 98.254H184.081V105.876H176.486V98.254ZM191.676 98.254H199.27V105.876H191.676V98.254ZM199.27 98.254H206.865V105.876H199.27V98.254ZM214.459 98.254H222.054V105.876H214.459V98.254ZM222.054 98.254H229.649V105.876H222.054V98.254ZM244.838 98.254H252.432V105.876H244.838V98.254ZM252.432 98.254H260.027V105.876H252.432V98.254ZM260.027 98.254H267.622V105.876H260.027V98.254ZM282.811 98.254H290.405V105.876H282.811V98.254ZM290.405 98.254H298V105.876H290.405V98.254ZM17 105.876H24.5946V113.497H17V105.876ZM24.5946 105.876H32.1892V113.497H24.5946V105.876ZM32.1892 105.876H39.7838V113.497H32.1892V105.876ZM47.3784 105.876H54.973V113.497H47.3784V105.876ZM54.973 105.876H62.5676V113.497H54.973V105.876ZM62.5676 105.876H70.1622V113.497H62.5676V105.876ZM77.7568 105.876H85.3513V113.497H77.7568V105.876ZM100.541 105.876H108.135V113.497H100.541V105.876ZM115.73 105.876H123.324V113.497H115.73V105.876ZM123.324 105.876H130.919V113.497H123.324V105.876ZM130.919 105.876H138.514V113.497H130.919V105.876ZM146.108 105.876H153.703V113.497H146.108V105.876ZM168.892 105.876H176.486V113.497H168.892V105.876ZM184.081 105.876H191.676V113.497H184.081V105.876ZM206.865 105.876H214.459V113.497H206.865V105.876ZM214.459 105.876H222.054V113.497H214.459V105.876ZM222.054 105.876H229.649V113.497H222.054V105.876ZM237.243 105.876H244.838V113.497H237.243V105.876ZM244.838 105.876H252.432V113.497H244.838V105.876ZM260.027 105.876H267.622V113.497H260.027V105.876ZM267.622 105.876H275.216V113.497H267.622V105.876ZM275.216 105.876H282.811V113.497H275.216V105.876ZM17 113.497H24.5946V121.119H17V113.497ZM24.5946 113.497H32.1892V121.119H24.5946V113.497ZM39.7838 113.497H47.3784V121.119H39.7838V113.497ZM47.3784 113.497H54.973V121.119H47.3784V113.497ZM54.973 113.497H62.5676V121.119H54.973V113.497ZM70.1622 113.497H77.7568V121.119H70.1622V113.497ZM85.3513 113.497H92.9459V121.119H85.3513V113.497ZM108.135 113.497H115.73V121.119H108.135V113.497ZM115.73 113.497H123.324V121.119H115.73V113.497ZM146.108 113.497H153.703V121.119H146.108V113.497ZM153.703 113.497H161.297V121.119H153.703V113.497ZM161.297 113.497H168.892V121.119H161.297V113.497ZM168.892 113.497H176.486V121.119H168.892V113.497ZM176.486 113.497H184.081V121.119H176.486V113.497ZM237.243 113.497H244.838V121.119H237.243V113.497ZM252.432 113.497H260.027V121.119H252.432V113.497ZM267.622 113.497H275.216V121.119H267.622V113.497ZM275.216 113.497H282.811V121.119H275.216V113.497ZM17 121.119H24.5946V128.74H17V121.119ZM32.1892 121.119H39.7838V128.74H32.1892V121.119ZM62.5676 121.119H70.1622V128.74H62.5676V121.119ZM77.7568 121.119H85.3513V128.74H77.7568V121.119ZM92.9459 121.119H100.541V128.74H92.9459V121.119ZM130.919 121.119H138.514V128.74H130.919V121.119ZM138.514 121.119H146.108V128.74H138.514V121.119ZM146.108 121.119H153.703V128.74H146.108V121.119ZM168.892 121.119H176.486V128.74H168.892V121.119ZM176.486 121.119H184.081V128.74H176.486V121.119ZM214.459 121.119H222.054V128.74H214.459V121.119ZM222.054 121.119H229.649V128.74H222.054V121.119ZM237.243 121.119H244.838V128.74H237.243V121.119ZM244.838 121.119H252.432V128.74H244.838V121.119ZM252.432 121.119H260.027V128.74H252.432V121.119ZM260.027 121.119H267.622V128.74H260.027V121.119ZM267.622 121.119H275.216V128.74H267.622V121.119ZM275.216 121.119H282.811V128.74H275.216V121.119ZM282.811 121.119H290.405V128.74H282.811V121.119ZM290.405 121.119H298V128.74H290.405V121.119ZM32.1892 128.74H39.7838V136.362H32.1892V128.74ZM70.1622 128.74H77.7568V136.362H70.1622V128.74ZM77.7568 128.74H85.3513V136.362H77.7568V128.74ZM85.3513 128.74H92.9459V136.362H85.3513V128.74ZM92.9459 128.74H100.541V136.362H92.9459V128.74ZM108.135 128.74H115.73V136.362H108.135V128.74ZM130.919 128.74H138.514V136.362H130.919V128.74ZM138.514 128.74H146.108V136.362H138.514V128.74ZM153.703 128.74H161.297V136.362H153.703V128.74ZM161.297 128.74H168.892V136.362H161.297V128.74ZM168.892 128.74H176.486V136.362H168.892V128.74ZM176.486 128.74H184.081V136.362H176.486V128.74ZM184.081 128.74H191.676V136.362H184.081V128.74ZM199.27 128.74H206.865V136.362H199.27V128.74ZM214.459 128.74H222.054V136.362H214.459V128.74ZM222.054 128.74H229.649V136.362H222.054V128.74ZM229.649 128.74H237.243V136.362H229.649V128.74ZM244.838 128.74H252.432V136.362H244.838V128.74ZM252.432 128.74H260.027V136.362H252.432V128.74ZM260.027 128.74H267.622V136.362H260.027V128.74ZM290.405 128.74H298V136.362H290.405V128.74ZM32.1892 136.362H39.7838V143.984H32.1892V136.362ZM39.7838 136.362H47.3784V143.984H39.7838V136.362ZM47.3784 136.362H54.973V143.984H47.3784V136.362ZM54.973 136.362H62.5676V143.984H54.973V136.362ZM62.5676 136.362H70.1622V143.984H62.5676V136.362ZM77.7568 136.362H85.3513V143.984H77.7568V136.362ZM92.9459 136.362H100.541V143.984H92.9459V136.362ZM108.135 136.362H115.73V143.984H108.135V136.362ZM115.73 136.362H123.324V143.984H115.73V136.362ZM123.324 136.362H130.919V143.984H123.324V136.362ZM130.919 136.362H138.514V143.984H130.919V136.362ZM146.108 136.362H153.703V143.984H146.108V136.362ZM153.703 136.362H161.297V143.984H153.703V136.362ZM161.297 136.362H168.892V143.984H161.297V136.362ZM184.081 136.362H191.676V143.984H184.081V136.362ZM206.865 136.362H214.459V143.984H206.865V136.362ZM222.054 136.362H229.649V143.984H222.054V136.362ZM229.649 136.362H237.243V143.984H229.649V136.362ZM244.838 136.362H252.432V143.984H244.838V136.362ZM260.027 136.362H267.622V143.984H260.027V136.362ZM275.216 136.362H282.811V143.984H275.216V136.362ZM17 143.984H24.5946V151.605H17V143.984ZM24.5946 143.984H32.1892V151.605H24.5946V143.984ZM32.1892 143.984H39.7838V151.605H32.1892V143.984ZM39.7838 143.984H47.3784V151.605H39.7838V143.984ZM70.1622 143.984H77.7568V151.605H70.1622V143.984ZM77.7568 143.984H85.3513V151.605H77.7568V143.984ZM115.73 143.984H123.324V151.605H115.73V143.984ZM138.514 143.984H146.108V151.605H138.514V143.984ZM153.703 143.984H161.297V151.605H153.703V143.984ZM161.297 143.984H168.892V151.605H161.297V143.984ZM168.892 143.984H176.486V151.605H168.892V143.984ZM229.649 143.984H237.243V151.605H229.649V143.984ZM252.432 143.984H260.027V151.605H252.432V143.984ZM17 151.605H24.5946V159.227H17V151.605ZM32.1892 151.605H39.7838V159.227H32.1892V151.605ZM47.3784 151.605H54.973V159.227H47.3784V151.605ZM54.973 151.605H62.5676V159.227H54.973V151.605ZM62.5676 151.605H70.1622V159.227H62.5676V151.605ZM70.1622 151.605H77.7568V159.227H70.1622V151.605ZM77.7568 151.605H85.3513V159.227H77.7568V151.605ZM92.9459 151.605H100.541V159.227H92.9459V151.605ZM100.541 151.605H108.135V159.227H100.541V151.605ZM108.135 151.605H115.73V159.227H108.135V151.605ZM130.919 151.605H138.514V159.227H130.919V151.605ZM146.108 151.605H153.703V159.227H146.108V151.605ZM168.892 151.605H176.486V159.227H168.892V151.605ZM176.486 151.605H184.081V159.227H176.486V151.605ZM184.081 151.605H191.676V159.227H184.081V151.605ZM199.27 151.605H206.865V159.227H199.27V151.605ZM222.054 151.605H229.649V159.227H222.054V151.605ZM229.649 151.605H237.243V159.227H229.649V151.605ZM244.838 151.605H252.432V159.227H244.838V151.605ZM252.432 151.605H260.027V159.227H252.432V151.605ZM260.027 151.605H267.622V159.227H260.027V151.605ZM282.811 151.605H290.405V159.227H282.811V151.605ZM290.405 151.605H298V159.227H290.405V151.605ZM17 159.227H24.5946V166.849H17V159.227ZM32.1892 159.227H39.7838V166.849H32.1892V159.227ZM39.7838 159.227H47.3784V166.849H39.7838V159.227ZM54.973 159.227H62.5676V166.849H54.973V159.227ZM70.1622 159.227H77.7568V166.849H70.1622V159.227ZM77.7568 159.227H85.3513V166.849H77.7568V159.227ZM85.3513 159.227H92.9459V166.849H85.3513V159.227ZM92.9459 159.227H100.541V166.849H92.9459V159.227ZM100.541 159.227H108.135V166.849H100.541V159.227ZM123.324 159.227H130.919V166.849H123.324V159.227ZM138.514 159.227H146.108V166.849H138.514V159.227ZM176.486 159.227H184.081V166.849H176.486V159.227ZM184.081 159.227H191.676V166.849H184.081V159.227ZM199.27 159.227H206.865V166.849H199.27V159.227ZM222.054 159.227H229.649V166.849H222.054V159.227ZM244.838 159.227H252.432V166.849H244.838V159.227ZM290.405 159.227H298V166.849H290.405V159.227ZM17 166.849H24.5946V174.47H17V166.849ZM32.1892 166.849H39.7838V174.47H32.1892V166.849ZM62.5676 166.849H70.1622V174.47H62.5676V166.849ZM77.7568 166.849H85.3513V174.47H77.7568V166.849ZM85.3513 166.849H92.9459V174.47H85.3513V166.849ZM100.541 166.849H108.135V174.47H100.541V166.849ZM115.73 166.849H123.324V174.47H115.73V166.849ZM123.324 166.849H130.919V174.47H123.324V166.849ZM130.919 166.849H138.514V174.47H130.919V166.849ZM138.514 166.849H146.108V174.47H138.514V166.849ZM146.108 166.849H153.703V174.47H146.108V166.849ZM161.297 166.849H168.892V174.47H161.297V166.849ZM199.27 166.849H206.865V174.47H199.27V166.849ZM206.865 166.849H214.459V174.47H206.865V166.849ZM214.459 166.849H222.054V174.47H214.459V166.849ZM222.054 166.849H229.649V174.47H222.054V166.849ZM229.649 166.849H237.243V174.47H229.649V166.849ZM237.243 166.849H244.838V174.47H237.243V166.849ZM244.838 166.849H252.432V174.47H244.838V166.849ZM252.432 166.849H260.027V174.47H252.432V166.849ZM260.027 166.849H267.622V174.47H260.027V166.849ZM275.216 166.849H282.811V174.47H275.216V166.849ZM282.811 166.849H290.405V174.47H282.811V166.849ZM290.405 166.849H298V174.47H290.405V166.849ZM77.7568 174.47H85.3513V182.092H77.7568V174.47ZM92.9459 174.47H100.541V182.092H92.9459V174.47ZM108.135 174.47H115.73V182.092H108.135V174.47ZM123.324 174.47H130.919V182.092H123.324V174.47ZM138.514 174.47H146.108V182.092H138.514V174.47ZM161.297 174.47H168.892V182.092H161.297V174.47ZM168.892 174.47H176.486V182.092H168.892V174.47ZM176.486 174.47H184.081V182.092H176.486V174.47ZM191.676 174.47H199.27V182.092H191.676V174.47ZM199.27 174.47H206.865V182.092H199.27V174.47ZM206.865 174.47H214.459V182.092H206.865V174.47ZM222.054 174.47H229.649V182.092H222.054V174.47ZM229.649 174.47H237.243V182.092H229.649V174.47ZM260.027 174.47H267.622V182.092H260.027V174.47ZM267.622 174.47H275.216V182.092H267.622V174.47ZM282.811 174.47H290.405V182.092H282.811V174.47ZM290.405 174.47H298V182.092H290.405V174.47ZM17 182.092H24.5946V189.713H17V182.092ZM24.5946 182.092H32.1892V189.713H24.5946V182.092ZM32.1892 182.092H39.7838V189.713H32.1892V182.092ZM39.7838 182.092H47.3784V189.713H39.7838V182.092ZM47.3784 182.092H54.973V189.713H47.3784V182.092ZM54.973 182.092H62.5676V189.713H54.973V182.092ZM62.5676 182.092H70.1622V189.713H62.5676V182.092ZM77.7568 182.092H85.3513V189.713H77.7568V182.092ZM85.3513 182.092H92.9459V189.713H85.3513V182.092ZM92.9459 182.092H100.541V189.713H92.9459V182.092ZM115.73 182.092H123.324V189.713H115.73V182.092ZM130.919 182.092H138.514V189.713H130.919V182.092ZM138.514 182.092H146.108V189.713H138.514V182.092ZM176.486 182.092H184.081V189.713H176.486V182.092ZM206.865 182.092H214.459V189.713H206.865V182.092ZM214.459 182.092H222.054V189.713H214.459V182.092ZM229.649 182.092H237.243V189.713H229.649V182.092ZM244.838 182.092H252.432V189.713H244.838V182.092ZM260.027 182.092H267.622V189.713H260.027V182.092ZM275.216 182.092H282.811V189.713H275.216V182.092ZM282.811 182.092H290.405V189.713H282.811V182.092ZM290.405 182.092H298V189.713H290.405V182.092ZM17 189.713H24.5946V197.335H17V189.713ZM62.5676 189.713H70.1622V197.335H62.5676V189.713ZM108.135 189.713H115.73V197.335H108.135V189.713ZM123.324 189.713H130.919V197.335H123.324V189.713ZM130.919 189.713H138.514V197.335H130.919V189.713ZM153.703 189.713H161.297V197.335H153.703V189.713ZM161.297 189.713H168.892V197.335H161.297V189.713ZM176.486 189.713H184.081V197.335H176.486V189.713ZM199.27 189.713H206.865V197.335H199.27V189.713ZM214.459 189.713H222.054V197.335H214.459V189.713ZM229.649 189.713H237.243V197.335H229.649V189.713ZM260.027 189.713H267.622V197.335H260.027V189.713ZM282.811 189.713H290.405V197.335H282.811V189.713ZM17 197.335H24.5946V204.957H17V197.335ZM32.1892 197.335H39.7838V204.957H32.1892V197.335ZM39.7838 197.335H47.3784V204.957H39.7838V197.335ZM47.3784 197.335H54.973V204.957H47.3784V197.335ZM62.5676 197.335H70.1622V204.957H62.5676V197.335ZM77.7568 197.335H85.3513V204.957H77.7568V197.335ZM92.9459 197.335H100.541V204.957H92.9459V197.335ZM108.135 197.335H115.73V204.957H108.135V197.335ZM115.73 197.335H123.324V204.957H115.73V197.335ZM130.919 197.335H138.514V204.957H130.919V197.335ZM146.108 197.335H153.703V204.957H146.108V197.335ZM153.703 197.335H161.297V204.957H153.703V197.335ZM168.892 197.335H176.486V204.957H168.892V197.335ZM184.081 197.335H191.676V204.957H184.081V197.335ZM199.27 197.335H206.865V204.957H199.27V197.335ZM206.865 197.335H214.459V204.957H206.865V197.335ZM214.459 197.335H222.054V204.957H214.459V197.335ZM222.054 197.335H229.649V204.957H222.054V197.335ZM229.649 197.335H237.243V204.957H229.649V197.335ZM237.243 197.335H244.838V204.957H237.243V197.335ZM244.838 197.335H252.432V204.957H244.838V197.335ZM252.432 197.335H260.027V204.957H252.432V197.335ZM260.027 197.335H267.622V204.957H260.027V197.335ZM275.216 197.335H282.811V204.957H275.216V197.335ZM282.811 197.335H290.405V204.957H282.811V197.335ZM17 204.957H24.5946V212.578H17V204.957ZM32.1892 204.957H39.7838V212.578H32.1892V204.957ZM39.7838 204.957H47.3784V212.578H39.7838V204.957ZM47.3784 204.957H54.973V212.578H47.3784V204.957ZM62.5676 204.957H70.1622V212.578H62.5676V204.957ZM77.7568 204.957H85.3513V212.578H77.7568V204.957ZM85.3513 204.957H92.9459V212.578H85.3513V204.957ZM92.9459 204.957H100.541V212.578H92.9459V204.957ZM115.73 204.957H123.324V212.578H115.73V204.957ZM138.514 204.957H146.108V212.578H138.514V204.957ZM153.703 204.957H161.297V212.578H153.703V204.957ZM161.297 204.957H168.892V212.578H161.297V204.957ZM168.892 204.957H176.486V212.578H168.892V204.957ZM176.486 204.957H184.081V212.578H176.486V204.957ZM184.081 204.957H191.676V212.578H184.081V204.957ZM191.676 204.957H199.27V212.578H191.676V204.957ZM206.865 204.957H214.459V212.578H206.865V204.957ZM222.054 204.957H229.649V212.578H222.054V204.957ZM237.243 204.957H244.838V212.578H237.243V204.957ZM244.838 204.957H252.432V212.578H244.838V204.957ZM252.432 204.957H260.027V212.578H252.432V204.957ZM260.027 204.957H267.622V212.578H260.027V204.957ZM282.811 204.957H290.405V212.578H282.811V204.957ZM290.405 204.957H298V212.578H290.405V204.957ZM17 212.578H24.5946V220.2H17V212.578ZM32.1892 212.578H39.7838V220.2H32.1892V212.578ZM39.7838 212.578H47.3784V220.2H39.7838V212.578ZM47.3784 212.578H54.973V220.2H47.3784V212.578ZM62.5676 212.578H70.1622V220.2H62.5676V212.578ZM77.7568 212.578H85.3513V220.2H77.7568V212.578ZM92.9459 212.578H100.541V220.2H92.9459V212.578ZM100.541 212.578H108.135V220.2H100.541V212.578ZM108.135 212.578H115.73V220.2H108.135V212.578ZM115.73 212.578H123.324V220.2H115.73V212.578ZM123.324 212.578H130.919V220.2H123.324V212.578ZM130.919 212.578H138.514V220.2H130.919V212.578ZM153.703 212.578H161.297V220.2H153.703V212.578ZM168.892 212.578H176.486V220.2H168.892V212.578ZM199.27 212.578H206.865V220.2H199.27V212.578ZM206.865 212.578H214.459V220.2H206.865V212.578ZM214.459 212.578H222.054V220.2H214.459V212.578ZM222.054 212.578H229.649V220.2H222.054V212.578ZM229.649 212.578H237.243V220.2H229.649V212.578ZM237.243 212.578H244.838V220.2H237.243V212.578ZM252.432 212.578H260.027V220.2H252.432V212.578ZM267.622 212.578H275.216V220.2H267.622V212.578ZM282.811 212.578H290.405V220.2H282.811V212.578ZM290.405 212.578H298V220.2H290.405V212.578ZM17 220.2H24.5946V227.822H17V220.2ZM62.5676 220.2H70.1622V227.822H62.5676V220.2ZM77.7568 220.2H85.3513V227.822H77.7568V220.2ZM92.9459 220.2H100.541V227.822H92.9459V220.2ZM100.541 220.2H108.135V227.822H100.541V220.2ZM130.919 220.2H138.514V227.822H130.919V220.2ZM153.703 220.2H161.297V227.822H153.703V220.2ZM168.892 220.2H176.486V227.822H168.892V220.2ZM176.486 220.2H184.081V227.822H176.486V220.2ZM184.081 220.2H191.676V227.822H184.081V220.2ZM199.27 220.2H206.865V227.822H199.27V220.2ZM222.054 220.2H229.649V227.822H222.054V220.2ZM229.649 220.2H237.243V227.822H229.649V220.2ZM237.243 220.2H244.838V227.822H237.243V220.2ZM244.838 220.2H252.432V227.822H244.838V220.2ZM267.622 220.2H275.216V227.822H267.622V220.2ZM290.405 220.2H298V227.822H290.405V220.2ZM17 227.822H24.5946V235.443H17V227.822ZM24.5946 227.822H32.1892V235.443H24.5946V227.822ZM32.1892 227.822H39.7838V235.443H32.1892V227.822ZM39.7838 227.822H47.3784V235.443H39.7838V227.822ZM47.3784 227.822H54.973V235.443H47.3784V227.822ZM54.973 227.822H62.5676V235.443H54.973V227.822ZM62.5676 227.822H70.1622V235.443H62.5676V227.822ZM77.7568 227.822H85.3513V235.443H77.7568V227.822ZM100.541 227.822H108.135V235.443H100.541V227.822ZM108.135 227.822H115.73V235.443H108.135V227.822ZM146.108 227.822H153.703V235.443H146.108V227.822ZM184.081 227.822H191.676V235.443H184.081V227.822ZM199.27 227.822H206.865V235.443H199.27V227.822ZM206.865 227.822H214.459V235.443H206.865V227.822ZM244.838 227.822H252.432V235.443H244.838V227.822ZM267.622 227.822H275.216V235.443H267.622V227.822ZM275.216 227.822H282.811V235.443H275.216V227.822ZM282.811 227.822H290.405V235.443H282.811V227.822ZM290.405 227.822H298V235.443H290.405V227.822Z" fill="#2E307E"/>
</g>
<path d="M76.4116 197.511C76.2885 197.009 76.0943 196.569 75.8292 196.19C75.564 195.802 75.2326 195.475 74.8349 195.21C74.4466 194.936 73.9921 194.732 73.4712 194.599C72.9599 194.457 72.3964 194.386 71.7809 194.386C70.4551 194.386 69.3235 194.704 68.386 195.338C67.458 195.973 66.7478 196.886 66.2553 198.08C65.7724 199.273 65.5309 200.712 65.5309 202.398C65.5309 204.102 65.7629 205.561 66.2269 206.773C66.6909 207.985 67.3822 208.913 68.3008 209.557C69.2193 210.201 70.3604 210.523 71.7241 210.523C72.9267 210.523 73.9258 210.348 74.7212 209.997C75.5262 209.647 76.1275 209.15 76.5252 208.506C76.9229 207.862 77.1218 207.104 77.1218 206.233L78.4854 206.375H71.8377V200.75H84.7354V204.784C84.7354 207.436 84.172 209.704 83.0451 211.588C81.9277 213.463 80.3841 214.902 78.4144 215.906C76.4542 216.901 74.2051 217.398 71.6673 217.398C68.8358 217.398 66.35 216.796 64.2099 215.594C62.0697 214.391 60.3983 212.677 59.1957 210.452C58.0025 208.226 57.4059 205.58 57.4059 202.511C57.4059 200.106 57.7705 197.975 58.4996 196.119C59.2383 194.263 60.261 192.696 61.5678 191.418C62.8746 190.13 64.3851 189.159 66.0991 188.506C67.8131 187.843 69.6502 187.511 71.6104 187.511C73.3339 187.511 74.9343 187.758 76.4116 188.25C77.8983 188.733 79.2099 189.424 80.3462 190.324C81.4921 191.214 82.4154 192.27 83.1161 193.491C83.8169 194.713 84.243 196.053 84.3945 197.511H76.4116ZM98.9862 217.398C96.6566 217.398 94.649 216.953 92.9634 216.062C91.2873 215.163 89.9947 213.875 89.0856 212.199C88.186 210.513 87.7362 208.496 87.7362 206.148C87.7362 203.894 88.1907 201.924 89.0998 200.239C90.0089 198.553 91.292 197.241 92.9492 196.304C94.6064 195.366 96.5619 194.898 98.8157 194.898C100.463 194.898 101.955 195.153 103.29 195.665C104.625 196.176 105.766 196.92 106.713 197.895C107.66 198.861 108.39 200.035 108.901 201.418C109.412 202.8 109.668 204.358 109.668 206.091V207.909H90.1793V203.591H102.452C102.443 202.966 102.282 202.417 101.969 201.943C101.666 201.46 101.254 201.086 100.733 200.821C100.222 200.546 99.6396 200.409 98.9862 200.409C98.3517 200.409 97.7693 200.546 97.239 200.821C96.7087 201.086 96.2826 201.455 95.9606 201.929C95.6481 202.402 95.4824 202.956 95.4634 203.591V208.25C95.4634 208.951 95.6102 209.576 95.9038 210.125C96.1973 210.674 96.6187 211.105 97.168 211.418C97.7172 211.73 98.3801 211.886 99.1566 211.886C99.6964 211.886 100.189 211.811 100.634 211.659C101.088 211.508 101.477 211.29 101.799 211.006C102.121 210.712 102.357 210.362 102.509 209.955H109.668C109.422 211.47 108.839 212.786 107.921 213.903C107.002 215.011 105.785 215.873 104.27 216.489C102.765 217.095 101.003 217.398 98.9862 217.398ZM120.708 204.727V217H112.868V195.182H120.311V199.33H120.538C121.011 197.947 121.845 196.863 123.038 196.077C124.241 195.291 125.642 194.898 127.243 194.898C128.786 194.898 130.126 195.253 131.262 195.963C132.408 196.664 133.294 197.63 133.919 198.861C134.553 200.092 134.866 201.498 134.856 203.08V217H127.015V204.727C127.025 203.648 126.75 202.8 126.191 202.185C125.642 201.569 124.875 201.261 123.89 201.261C123.246 201.261 122.683 201.403 122.2 201.688C121.726 201.962 121.362 202.36 121.106 202.881C120.85 203.392 120.718 204.008 120.708 204.727ZM149.181 217.398C146.852 217.398 144.844 216.953 143.159 216.062C141.483 215.163 140.19 213.875 139.281 212.199C138.381 210.513 137.931 208.496 137.931 206.148C137.931 203.894 138.386 201.924 139.295 200.239C140.204 198.553 141.487 197.241 143.145 196.304C144.802 195.366 146.757 194.898 149.011 194.898C150.659 194.898 152.15 195.153 153.485 195.665C154.821 196.176 155.962 196.92 156.909 197.895C157.856 198.861 158.585 200.035 159.096 201.418C159.608 202.8 159.863 204.358 159.863 206.091V207.909H140.375V203.591H152.647C152.638 202.966 152.477 202.417 152.164 201.943C151.861 201.46 151.449 201.086 150.929 200.821C150.417 200.546 149.835 200.409 149.181 200.409C148.547 200.409 147.965 200.546 147.434 200.821C146.904 201.086 146.478 201.455 146.156 201.929C145.843 202.402 145.678 202.956 145.659 203.591V208.25C145.659 208.951 145.806 209.576 146.099 210.125C146.393 210.674 146.814 211.105 147.363 211.418C147.913 211.73 148.575 211.886 149.352 211.886C149.892 211.886 150.384 211.811 150.829 211.659C151.284 211.508 151.672 211.29 151.994 211.006C152.316 210.712 152.553 210.362 152.704 209.955H159.863C159.617 211.47 159.035 212.786 158.116 213.903C157.198 215.011 155.981 215.873 154.466 216.489C152.96 217.095 151.199 217.398 149.181 217.398ZM163.063 217V195.182H170.676V199.33H170.904C171.301 197.795 171.931 196.673 172.793 195.963C173.664 195.253 174.682 194.898 175.847 194.898C176.188 194.898 176.524 194.926 176.855 194.983C177.196 195.03 177.523 195.101 177.836 195.196V201.886C177.447 201.754 176.969 201.654 176.401 201.588C175.833 201.522 175.345 201.489 174.938 201.489C174.171 201.489 173.48 201.664 172.864 202.014C172.258 202.355 171.78 202.838 171.429 203.463C171.079 204.079 170.904 204.803 170.904 205.636V217H163.063ZM185.471 217.341C184.078 217.341 182.847 217.114 181.777 216.659C180.717 216.195 179.883 215.494 179.277 214.557C178.671 213.619 178.368 212.426 178.368 210.977C178.368 209.784 178.572 208.766 178.979 207.923C179.386 207.071 179.954 206.375 180.684 205.835C181.413 205.295 182.26 204.884 183.226 204.599C184.202 204.315 185.253 204.131 186.38 204.045C187.601 203.951 188.581 203.837 189.32 203.705C190.068 203.562 190.608 203.368 190.939 203.122C191.271 202.866 191.436 202.53 191.436 202.114V202.057C191.436 201.489 191.219 201.053 190.783 200.75C190.347 200.447 189.789 200.295 189.107 200.295C188.359 200.295 187.748 200.461 187.275 200.793C186.81 201.115 186.531 201.612 186.436 202.284H179.221C179.315 200.958 179.737 199.737 180.485 198.619C181.242 197.492 182.346 196.593 183.794 195.92C185.243 195.239 187.052 194.898 189.221 194.898C190.783 194.898 192.185 195.082 193.425 195.452C194.666 195.812 195.721 196.318 196.593 196.972C197.464 197.616 198.127 198.373 198.581 199.244C199.045 200.106 199.277 201.044 199.277 202.057V217H191.948V213.932H191.777C191.342 214.746 190.811 215.404 190.186 215.906C189.571 216.408 188.865 216.773 188.07 217C187.284 217.227 186.417 217.341 185.471 217.341ZM188.027 212.398C188.624 212.398 189.183 212.275 189.703 212.028C190.234 211.782 190.665 211.427 190.996 210.963C191.328 210.499 191.493 209.936 191.493 209.273V207.455C191.285 207.54 191.062 207.62 190.826 207.696C190.598 207.772 190.352 207.843 190.087 207.909C189.831 207.975 189.557 208.037 189.263 208.094C188.979 208.151 188.681 208.203 188.368 208.25C187.762 208.345 187.265 208.501 186.877 208.719C186.498 208.927 186.214 209.188 186.025 209.5C185.845 209.803 185.755 210.144 185.755 210.523C185.755 211.129 185.968 211.593 186.394 211.915C186.82 212.237 187.364 212.398 188.027 212.398ZM216.035 195.182V200.864H201.66V195.182H216.035ZM204.444 189.955H212.285V209.983C212.285 210.286 212.337 210.542 212.441 210.75C212.546 210.949 212.707 211.1 212.924 211.205C213.142 211.299 213.422 211.347 213.762 211.347C213.999 211.347 214.274 211.318 214.586 211.261C214.908 211.205 215.145 211.157 215.297 211.119L216.433 216.631C216.083 216.735 215.581 216.863 214.927 217.014C214.283 217.166 213.516 217.265 212.626 217.312C210.827 217.407 209.316 217.223 208.095 216.759C206.873 216.285 205.955 215.542 205.339 214.528C204.724 213.515 204.425 212.246 204.444 210.722V189.955ZM229.512 217.398C227.144 217.398 225.118 216.929 223.432 215.991C221.747 215.045 220.454 213.728 219.554 212.043C218.655 210.348 218.205 208.383 218.205 206.148C218.205 203.913 218.655 201.953 219.554 200.267C220.454 198.572 221.747 197.256 223.432 196.318C225.118 195.371 227.144 194.898 229.512 194.898C231.879 194.898 233.906 195.371 235.591 196.318C237.277 197.256 238.569 198.572 239.469 200.267C240.369 201.953 240.819 203.913 240.819 206.148C240.819 208.383 240.369 210.348 239.469 212.043C238.569 213.728 237.277 215.045 235.591 215.991C233.906 216.929 231.879 217.398 229.512 217.398ZM229.569 211.602C230.231 211.602 230.804 211.38 231.287 210.935C231.77 210.49 232.144 209.855 232.409 209.031C232.675 208.207 232.807 207.227 232.807 206.091C232.807 204.945 232.675 203.965 232.409 203.151C232.144 202.327 231.77 201.692 231.287 201.247C230.804 200.802 230.231 200.58 229.569 200.58C228.868 200.58 228.266 200.802 227.765 201.247C227.263 201.692 226.879 202.327 226.614 203.151C226.349 203.965 226.216 204.945 226.216 206.091C226.216 207.227 226.349 208.207 226.614 209.031C226.879 209.855 227.263 210.49 227.765 210.935C228.266 211.38 228.868 211.602 229.569 211.602ZM244 217V195.182H251.614V199.33H251.841C252.239 197.795 252.869 196.673 253.73 195.963C254.602 195.253 255.62 194.898 256.784 194.898C257.125 194.898 257.462 194.926 257.793 194.983C258.134 195.03 258.461 195.101 258.773 195.196V201.886C258.385 201.754 257.907 201.654 257.338 201.588C256.77 201.522 256.283 201.489 255.875 201.489C255.108 201.489 254.417 201.664 253.801 202.014C253.195 202.355 252.717 202.838 252.367 203.463C252.016 204.079 251.841 204.803 251.841 205.636V217H244Z" fill="#2E307E"/>
</svg>
